<?xml version="1.0" standalone="no"?>
<!DOCTYPE svg PUBLIC "-//W3C//DTD SVG 1.1//EN" "http://www.w3.org/Graphics/SVG/1.1/DTD/svg11.dtd" >
<svg>
<metadata>
Created by FontForge 20090914 at Wed Aug 24 09:57:16 2016
 By www-data
free from: Publishers' Paradise BBS (205)882-6886 HST D/S
</metadata>
<defs>
<font id="Eras-Normal" horiz-adv-x="21" >
  <font-face 
    font-family="Eras"
    font-weight="400"
    font-stretch="normal"
    units-per-em="1000"
    panose-1="2 0 5 3 0 0 0 0 0 0"
    ascent="800"
    descent="-200"
    x-height="454"
    cap-height="613"
    bbox="-2 -279 1014 814.001"
    underline-thickness="40"
    underline-position="-40"
    unicode-range="U+0020-U+FFFD"
  />
<missing-glyph horiz-adv-x="0" 
 />
    <glyph glyph-name=".notdef" unicode="&#xfffd;" horiz-adv-x="0" 
 />
    <glyph glyph-name="space" unicode=" " 
 />
    <glyph glyph-name="exclam" unicode="!" horiz-adv-x="101" 
d="M11 605h57v-489h-57v489zM4 66h71v-64h-71v64z" />
    <glyph glyph-name="quotedbl" unicode="&#x22;" horiz-adv-x="215" 
d="M127 605h59v-142h-59v142zM5 605h58v-142h-58v142z" />
    <glyph glyph-name="numbersign" unicode="#" horiz-adv-x="502" 
d="M150 432l43 173h59l-45 -173h123l43 173h57l-42 -173h87v-43h-95l-42 -173h85v-43h-93l-42 -171h-58l43 171h-130l-43 -171h-57l43 171h-79v43h93l43 173h-86v43h93zM280 216l43 173h-130l-36 -173h123z" />
    <glyph glyph-name="dollar" unicode="$" horiz-adv-x="358" 
d="M139 613v79.998h59v-80c18 0 49 -7.33301 93 -22l7 -50c-45.333 14.667 -85.666 22 -120.999 22c-34 0 -59.5 -8 -76.5 -24s-25.5 -35.667 -25.5 -59c0 -35.333 14.333 -65.666 43 -90.999c2 -2 11.333 -9.66699 28 -23s29.5 -24 38.5 -32l39 -35
c17 -15.333 30.5 -29 40.5 -41s20.667 -25.5 32 -40.5s19.666 -29.667 24.999 -44s8 -28.166 8 -41.499c0 -1.33301 -0.333008 -3.83301 -1 -7.5s-1 -6.5 -1 -8.5c-6.66699 -30 -22 -54.5 -46 -73.5s-51.667 -32.5 -83 -40.5v-79h-59v79
c-4.66699 0.666992 -12.834 1.5 -24.501 2.5s-19 1.83301 -22 2.5s-8.66699 1.5 -17 2.5s-14 2 -17 3s-7.66699 2.33301 -14 4s-12 3.66699 -17 6l-16.5 7.5l-7 58c65.333 -30 116.333 -45 153 -45c58.667 0 94 29 106 87v11c0 10 -3 21 -9 33s-14.5 24.167 -25.5 36.5
s-21 23 -30 32s-20.333 19.5 -34 31.5s-22.167 19.333 -25.5 22c-7.33301 7.33301 -20.166 19 -38.499 35s-32.5 29 -42.5 39s-20 24 -30 42s-15.667 37.333 -17 58c0 1.33301 -0.333008 3 -1 5s-1 3.66699 -1 5c0 32 13 60.5 39 85.5s56.333 40.833 91 47.5z" />
    <glyph glyph-name="percent" unicode="%" horiz-adv-x="711" 
d="M225 432c0 55.333 -8.00293 94.5029 -24.0029 117.503s-34.667 34.5 -56 34.5c-16.667 0 -31.167 -5.33301 -43.5 -16s-21.333 -24.334 -27 -41.001s-9.66699 -32.834 -12 -48.501s-3.5 -31.167 -3.5 -46.5c0 -16.667 0.833008 -33.334 2.5 -50.001
s4.83398 -35.667 9.50098 -57s12.834 -38.5 24.501 -51.5s25.834 -19.5 42.501 -19.5c58 0 87 59.333 87 178zM8.99707 432.003c3.33301 59.333 16.001 105.498 38.001 138.498s52.333 49.5 91 49.5c42 0 75.333 -15.5 100 -46.5s37 -78.167 37 -141.5
c0 -65.333 -10.833 -117.666 -32.5 -156.999s-56.5 -59 -104.5 -59c-25.333 0 -47 7 -65 21s-31.333 32.5 -40 55.5s-14.834 45.833 -18.501 68.5s-5.5 46.334 -5.5 71.001zM633.998 195.001c0 55.333 -7.66699 94.3311 -23 116.998s-34 34 -56 34
s-39.833 -9.66699 -53.5 -29s-22.334 -39.166 -26.001 -59.499s-5.5 -41.166 -5.5 -62.499c0 -16.667 0.833008 -33.334 2.5 -50.001s4.83398 -35.667 9.50098 -57s12.667 -38.666 24 -51.999s25.333 -20 42 -20c57.333 0 86 59.667 86 179zM417.998 194.999
c3.33301 58.667 16.167 104.498 38.5 137.498s52.833 49.5 91.5 49.5c41.333 0 74.666 -15.667 99.999 -47s38 -78 38 -140c0 -65.333 -11.167 -117.5 -33.5 -156.5s-57.166 -58.5 -104.499 -58.5c-25.333 0 -47 7 -65 21s-31.5 32.333 -40.5 55s-15.333 45.334 -19 68.001
s-5.5 46.334 -5.5 71.001zM490.999 612.997h50l-346 -611h-50z" />
    <glyph glyph-name="ampersand" unicode="&#x26;" horiz-adv-x="597" 
d="M389 95l-200.002 201.002c-35.333 -12.667 -64.666 -33.334 -87.999 -62.001s-35 -57.334 -35 -86.001c0 -32 14.333 -59.333 43 -82c33.333 -27.333 72 -41 116 -41c32.667 0 64.834 7 96.501 21s54.167 30.333 67.5 49zM447.998 254.002l50.0029 -0.00195312
c0 -24.667 -0.5 -43 -1.5 -55s-4 -27.167 -9 -45.5s-13.167 -37.833 -24.5 -58.5l107 -93h-72l-71 57c-18.667 -21.333 -46.834 -38.333 -84.501 -51s-76.834 -19 -117.501 -19c-38 0 -73.333 6.16699 -106 18.5s-57.334 29.5 -74.001 51.5c-24 34 -36 66 -36 96
c0 64.667 47.667 123.667 143 177c-42.667 50.667 -64 101.334 -64 152.001c4 42 22 73.333 54 94s71.667 31 119 31c29.333 0 60.333 -3.66699 93 -11l14 -50c-36 12 -71.667 18 -107 18c-36 0 -64.333 -8.66699 -85 -26s-31 -39.666 -31 -66.999c0 -39.333 22 -84 66 -134
l209 -209c18.667 38.667 28 80 28 124z" />
    <glyph glyph-name="quotesingle" unicode="'" horiz-adv-x="149" 
d="M46 598h79l-86 -144h-35z" />
    <glyph glyph-name="parenleft" unicode="(" horiz-adv-x="149" 
d="M75 605h43c-36.667 -136 -55 -268.667 -55 -398c0 -122 18.333 -257 55 -405h-43c-44 142.667 -66 276.667 -66 402c0 121.333 22 255 66 401z" />
    <glyph glyph-name="parenright" unicode=")" horiz-adv-x="140" 
d="M4 598l42 -0.000976562c43.333 -132 65 -263.333 65 -394c0 -124.667 -21.667 -258.667 -65 -402h-42c33.333 111.333 50 241 50 389c0 142.667 -16.667 278.334 -50 407.001z" />
    <glyph glyph-name="asterisk" unicode="*" horiz-adv-x="340" 
d="M136 605h52l-8 -128l122 50l14 -43l-128 -38l92 -100l-35 -28l-79 107l-87 -107l-29 28l86 100l-129 38l22 43l121 -57z" />
    <glyph glyph-name="plus" unicode="+" horiz-adv-x="492" 
d="M211 254v200h50v-200h202v-52h-202v-200h-50v200h-202v52h202z" />
    <glyph glyph-name="comma" unicode="," horiz-adv-x="158" 
d="M48 66h86l-86 -157h-43z" />
    <glyph glyph-name="hyphen" unicode="-" horiz-adv-x="263" 
d="M7 254h223v-45h-223v45z" />
    <glyph glyph-name="period" unicode="." horiz-adv-x="101" 
d="M5 66h72v-64h-72v64z" />
    <glyph glyph-name="slash" unicode="/" horiz-adv-x="388" 
d="M298 613h65l-302 -611h-57z" />
    <glyph glyph-name="zero" unicode="0" horiz-adv-x="465" 
d="M366 325c0 48 -4.83301 90.8311 -14.5 128.498s-26.167 68.834 -49.5 93.501s-52 37 -86 37c-27.333 0 -51.5 -9.66699 -72.5 -29s-36.833 -43.5 -47.5 -72.5s-18.667 -57.667 -24 -86s-8 -54.5 -8 -78.5c0 -95.333 12.833 -167.166 38.5 -215.499
s61.167 -72.5 106.5 -72.5c104.667 0 157 85.333 157 256v39zM7 317.998c0 100 19.499 176.496 58.499 229.496s89.167 79.5 150.5 79.5c42 0 78.167 -11.167 108.5 -33.5s52.833 -51.166 67.5 -86.499s25 -69.666 31 -102.999s9 -66.666 9 -99.999
s-2.66699 -66.166 -8 -98.499s-14.833 -66 -28.5 -101s-35.167 -63.333 -64.5 -85s-64.666 -32.5 -105.999 -32.5h-9c-75.333 0 -128 27 -158 81s-47 137.333 -51 250z" />
    <glyph glyph-name="one" unicode="1" horiz-adv-x="149" 
d="M61 563l-52 -36v57l59 36h57v-618h-64v561z" />
    <glyph glyph-name="two" unicode="2" horiz-adv-x="426" 
d="M2 52l193.998 215.999c84.667 88.667 127 160 127 214c0 50.667 -37.333 82.334 -112 95.001c-3.33301 0 -9.66602 0.333008 -18.999 1s-15.666 1 -18.999 1c-34 0 -88.667 -8 -164 -24l7 43c48 15.333 99.667 23 155 23c62 0 114.167 -11.167 156.5 -33.5
s63.5 -55.166 63.5 -98.499c0 -52.667 -31.667 -114.334 -95 -185.001l-223 -259h309v-43h-380v50z" />
    <glyph glyph-name="three" unicode="3" horiz-adv-x="435" 
d="M104 339c4 0 10.3311 -0.170898 18.998 -0.503906s15.334 -0.5 20.001 -0.5c112.667 0 171.667 38.667 177 116v7c0 40.667 -15 69.834 -45 87.501s-68 26.5 -114 26.5c-28.667 0 -71.667 -4 -129 -12l7 42c45.333 10 86.666 15 123.999 15c63.333 0 116 -13 158 -39
s63 -63 63 -111v-24c-3.33301 -36 -17.166 -64.333 -41.499 -85s-53.5 -35 -87.5 -43c16.667 -3.33301 30.334 -6.66602 41.001 -9.99902s23.667 -8.83301 39 -16.5s27.5 -16.667 36.5 -27s16.833 -24.666 23.5 -42.999s10 -39.166 10 -62.499
c0 -51.333 -21.5 -92.5 -64.5 -123.5s-98.833 -46.5 -167.5 -46.5c-50.667 0 -104.667 9 -162 27l-7 50c46.667 -21.333 97 -32 151 -32c49.333 0 91.666 10 126.999 30s55 49.333 59 88v18c0 41.333 -17.167 71.833 -51.5 91.5s-77.833 29.5 -130.5 29.5
c-25.333 0 -43.666 -0.666992 -54.999 -2v50z" />
    <glyph glyph-name="four" unicode="4" horiz-adv-x="445" 
d="M254 2v214h-252v59l230 330h79v-344h102v-45h-102v-214h-57zM254 563l-209 -302h209v302z" />
    <glyph glyph-name="five" unicode="5" horiz-adv-x="417" 
d="M38 605l329.997 0.000976562v-42h-273l-15 -217c8 0 20.333 0.333008 37 1s29.334 1 38.001 1c156 0 234 -55.333 234 -166v-9c-0.666992 -35.333 -9 -65.833 -25 -91.5s-37.167 -45.334 -63.5 -59.001s-53.666 -23.5 -81.999 -29.5s-57.833 -9 -88.5 -9
c-53.333 0 -93.666 6 -120.999 18l-7 50c54.667 -15.333 100.334 -23 137.001 -23c55.333 0 99.666 13 132.999 39s51 61 53 105v18c0 38.667 -15.833 67.667 -47.5 87s-75.5 29 -131.5 29c-40.667 0 -81.667 -3.66699 -123 -11z" />
    <glyph glyph-name="six" unicode="6" horiz-adv-x="454" 
d="M205 605h65.001l-48 -72c-32.667 -48 -56.667 -85.167 -72 -111.5s-32.5 -61.5 -51.5 -105.5s-29.167 -82 -30.5 -114c0 -2 -0.333008 -5.66699 -1 -11s-1 -9 -1 -11c0 -42 11.5 -77.5 34.5 -106.5s57.833 -43.5 104.5 -43.5c50 0 87.5 13.5 112.5 40.5
s37.5 58.833 37.5 95.5c0 54.667 -12 92.167 -36 112.5s-56 30.5 -96 30.5c-10.667 0 -26 -0.833008 -46 -2.5s-32.667 -2.5 -38 -2.5l22 42c24 5.33301 45.333 8 64 8c23.333 0 45.833 -3 67.5 -9s42.5 -15.5 62.5 -28.5s36 -31.667 48 -56s18 -52.833 18 -85.5v-9
c-2 -34 -9.83301 -63.333 -23.5 -88s-31.667 -43.167 -54 -55.5s-45.333 -21.333 -69 -27s-49.167 -8.5 -76.5 -8.5c-60 0 -106.5 18.667 -139.5 56s-49.5 86 -49.5 146c0 46 10 96 30 150c3.33301 8.66699 7 17.5 11 26.5s8.83301 18.667 14.5 29l15 27.5
c4.33301 8 10.666 18.333 18.999 31l19 29c4.33301 6.66699 11.666 17.167 21.999 31.5l21 29.5l23 32c11.667 16 18.834 26 21.501 30z" />
    <glyph glyph-name="seven" unicode="7" horiz-adv-x="386" 
d="M305 570h-301v43h359v-50l-231 -561h-71z" />
    <glyph glyph-name="eight" unicode="8" horiz-adv-x="465" 
d="M352 463v10c0 25.333 -11.167 49 -33.5 71s-54.166 33 -95.499 33c-91.333 0 -137 -43.667 -137 -131c0 -35.333 10.5 -64.333 31.5 -87s53.833 -34 98.5 -34c39.333 0 72.166 12.333 98.499 37s39.5 51.667 39.5 81c0 1.33301 -0.333008 4.5 -1 9.5s-1 8.5 -1 10.5z
M373 166c0 77.333 -52.333 116 -157 116c-55.333 0 -94.5 -11 -117.5 -33s-34.5 -54.333 -34.5 -97c0 -34.667 15.667 -63.667 47 -87s66.333 -35 105 -35c52 0 91.167 14.167 117.5 42.5s39.5 59.5 39.5 93.5zM129 311c-72 30.667 -108 81.3311 -108 151.998
c0 52 19.833 91.167 59.5 117.5s84.834 39.5 135.501 39.5c48 0 92.167 -12.667 132.5 -38s60.5 -63.333 60.5 -114v-22c-3.33301 -38 -14.166 -66.667 -32.499 -86s-43.166 -35.666 -74.499 -48.999c48 -7.33301 81.667 -24.166 101 -50.499s29 -62.5 29 -108.5
c0 -17.333 -3.66699 -35 -11 -53s-18.833 -35.667 -34.5 -53s-38.334 -31.5 -68.001 -42.5s-63.834 -16.5 -102.501 -16.5c-38 0 -70.833 5 -98.5 15s-48.834 23.667 -63.501 41s-25.667 34.833 -33 52.5s-12 36.5 -14 56.5c0 84 40.667 137 122 159z" />
    <glyph glyph-name="nine" unicode="9" horiz-adv-x="443" 
d="M154 2c28 38 49.666 68.3379 64.999 91.0049s35.5 55 60.5 97s43.833 82.167 56.5 120.5s19 74.166 19 107.499c0 49.333 -11.167 88.5 -33.5 117.5s-56.166 45.167 -101.499 48.5h-15c-32.667 0 -63.167 -12.667 -91.5 -38s-43.5 -61 -45.5 -107
c0 -0.666992 -0.333008 -2.33398 -1 -5.00098s-1 -4.33398 -1 -5.00098c0 -37.333 13.333 -66.666 40 -87.999s61.667 -32 105 -32c24.667 0 56 5.33301 94 16l-21 -50c-30.667 -7.33301 -58.667 -11 -84 -11c-32.667 0 -62.5 4.33301 -89.5 13s-51.333 25.667 -73 51
s-32.834 57.666 -33.501 96.999c0 1.33301 -0.333008 3.16602 -1 5.49902s-1 4.16602 -1 5.49902c0 57.333 21.667 103.5 65 138.5s92 52.5 146 52.5c126 0 193 -65 201 -195v-11c0 -48 -19.667 -115.667 -59 -203s-79.666 -159.333 -120.999 -216h-80z" />
    <glyph glyph-name="colon" unicode=":" horiz-adv-x="110" 
d="M7 446h72v-64h-72v64zM7 66h72v-64h-72v64z" />
    <glyph glyph-name="semicolon" unicode=";" horiz-adv-x="158" 
d="M63 454h64v-72h-64v72zM48 59h79l-79 -150h-43z" />
    <glyph glyph-name="less" unicode="&#x3c;" horiz-adv-x="474" 
d="M2 188v73l439 193v-65l-396 -166l396 -171v-65z" />
    <glyph glyph-name="equal" unicode="=" horiz-adv-x="483" 
d="M9 332h446v-57h-446v57zM2 159h453v-57h-453v57z" />
    <glyph glyph-name="greater" unicode="&#x3e;" horiz-adv-x="483" 
d="M9 484l446 -209v-80l-446 -200v64l395 173l-395 186v66z" />
    <glyph glyph-name="question" unicode="?" horiz-adv-x="388" 
d="M145 109l-0.00292969 123.001c0 17.333 13.167 42.666 39.5 75.999l79.5 103c26.667 35.333 40 64.333 40 87c0 24.667 -8.5 44.334 -25.5 59.001s-35.167 24 -54.5 28s-41 6 -65 6c-43.333 0 -93.333 -7 -150 -21l7 50c54.667 9.33301 100.667 14 138 14
c38 0 71.667 -3.66699 101 -11s54.333 -21 75 -41s31 -45.667 31 -77c-1.33301 -26.667 -7.66602 -51.834 -18.999 -75.501s-24.666 -44.334 -39.999 -62.001l-46 -51c-15.333 -16.333 -28.166 -33.666 -38.499 -51.999s-15.5 -36.833 -15.5 -55.5v-100h-57zM137.997 66.001
h71v-64h-71v64z" />
    <glyph glyph-name="at" unicode="@" horiz-adv-x="665" 
d="M421 361c-14 -10.667 -39.998 -21.1719 -77.998 -31.5049s-70.167 -22.166 -96.5 -35.499s-39.5 -31.666 -39.5 -54.999c0 -35.333 25.667 -53 77 -53c24 0 55.667 5.33301 95 16l-15 -43c-20.667 -8.66699 -43.667 -13 -69 -13c-36.667 0 -69.167 7.66699 -97.5 23
s-42.5 38.666 -42.5 69.999c0 52 34 87.667 102 107c31.333 4.66699 66.833 15.334 106.5 32.001s59.5 35.334 59.5 56.001c0 1.33301 -0.333008 3.5 -1 6.5s-1 4.83301 -1 5.5c-7.33301 24 -37 36 -89 36c-43.333 0 -88 -9.33301 -134 -28l9 44c29.333 15.333 68 23 116 23
c38.667 0 72.167 -6.83301 100.5 -20.5s42.5 -34.5 42.5 -62.5v-236c36 0 65 15.167 87 45.5s33 66.833 33 109.5c0 58.667 -20.667 111.5 -62 158.5s-101.666 72.167 -180.999 75.5c-50 0 -95.667 -9.5 -137 -28.5s-75.5 -49.5 -102.5 -91.5s-40.5 -93 -40.5 -153
c0 -85.333 21.5 -153.666 64.5 -204.999s105.167 -79 186.5 -83c104 0 181 43 231 129h57c-23.333 -56 -61.5 -98.667 -114.5 -128s-105.833 -44 -158.5 -44c-108.667 4 -188.834 34 -240.501 90s-79.5 136.333 -83.5 241c0 85.333 29.833 159.333 89.5 222
s135.167 94 226.5 94c37.333 0 72.5 -3.83301 105.5 -11.5s65 -20.167 96 -37.5s56.667 -42.666 77 -75.999s33.166 -73.333 38.499 -120c0 -4 0.166992 -10.333 0.5 -19s0.5 -14.667 0.5 -18c0 -28.667 -4.66699 -54.5 -14 -77.5s-21.333 -41.5 -36 -55.5
s-31.834 -25.667 -51.501 -35s-39 -15.833 -58 -19.5s-38.5 -5.5 -58.5 -5.5v202z" />
    <glyph glyph-name="A" unicode="A" horiz-adv-x="645" 
d="M7 2l288 611h78l245 -611h-72l-108 287h-238l-121 -287h-72zM423 332l-93 238l-116 -238h209z" />
    <glyph glyph-name="B" unicode="B" horiz-adv-x="454" 
d="M7 613l209.001 0.000976562c58.667 0 104.667 -12.167 138 -36.5s50 -60.5 50 -108.5v-14c-8.66699 -70.667 -47.334 -116 -116.001 -136c42.667 -2.66699 76.167 -19.334 100.5 -50.001s36.5 -64.667 36.5 -102v-14c-4.66699 -101.333 -70 -152 -196 -152
c-4 -0 -9.83301 0.333008 -17.5 1s-13.167 1 -16.5 1h-188v611zM71.001 570.001l-0.000976562 -231.001h102c46.667 0 84.167 7.83301 112.5 23.5s45.833 46.167 52.5 91.5c0 10.667 -0.333008 19.5 -1 26.5s-3 16.833 -7 29.5s-10 22.834 -18 30.501
s-20.167 14.5 -36.5 20.5s-36.166 9 -59.499 9h-145zM359 166l0.00195312 8.99805c0 24.667 -6.33301 45.834 -19 63.501s-28.334 30.167 -47.001 37.5s-34.834 12.5 -48.501 15.5s-25.5 4.5 -35.5 4.5h-138v-251h138c14.667 0 29.5 1.33301 44.5 4s31 7.5 48 14.5
s30.833 18.333 41.5 34s16 34.834 16 57.501v11z" />
    <glyph glyph-name="C" unicode="C" horiz-adv-x="531" 
d="M4 304c2.66699 106.667 32.5 185.667 89.5 237s136.5 77 238.5 77c48 0 97 -4.33301 147 -13l14 -64c-57.333 16.667 -113.333 25 -168 25c-78 0 -140.333 -21.167 -187 -63.5s-70 -108.5 -70 -198.5c0 -1.33301 -0.333008 -3.5 -1 -6.5s-1 -5.16699 -1 -6.5
c0 -90 24.667 -156.5 74 -199.5s112.333 -64.5 189 -64.5c56.667 0 113.667 10.667 171 32l-7 -57c-54.667 -12 -109 -18 -163 -18c-104.667 0 -185.167 28.167 -241.5 84.5s-84.5 134.833 -84.5 235.5z" />
    <glyph glyph-name="D" unicode="D" horiz-adv-x="579" 
d="M7 613l265.998 0.00195312c87.333 0 156 -24.167 206 -72.5s75 -121.5 75 -219.5v-17c0 -14.667 -0.666992 -28.834 -2 -42.501s-4.66602 -30.834 -9.99902 -51.501s-12.5 -39.667 -21.5 -57s-22 -35.5 -39 -54.5s-37 -35 -60 -48s-52.167 -24.167 -87.5 -33.5
s-74.666 -14.333 -117.999 -15h-209v611zM63.998 570.002v-517.999h145c55.333 0 102 7.16699 140 21.5s66.833 34.833 86.5 61.5s33.5 55.167 41.5 85.5s12 65.166 12 104.499c0 79.333 -17.5 140 -52.5 182s-96.5 63 -184.5 63h-188z" />
    <glyph glyph-name="E" unicode="E" horiz-adv-x="406" 
d="M2 613h373v-43h-309v-238h280v-43h-280v-244h302v-43h-366v611z" />
    <glyph glyph-name="F" unicode="F" horiz-adv-x="397" 
d="M9 613h359v-43h-295v-238h266v-43h-266v-287h-64v611z" />
    <glyph glyph-name="G" unicode="G" horiz-adv-x="599" 
d="M509 296l-144.999 0.000976562v43h209v-323c-82 -19.333 -160 -29 -234 -29c-214 0 -325.333 98.333 -334 295c0 2 -0.166992 5.16699 -0.5 9.5s-0.5 7.16602 -0.5 8.49902c0 100 27.333 178.833 82 236.5s142 86.5 262 86.5c62 0 125.333 -6 190 -18l7 -57
c-72.667 20.667 -140 31 -202 31c-96 0 -166.667 -25.833 -212 -77.5s-68 -117.5 -68 -197.5c2.66699 -89.333 28.167 -157.5 76.5 -204.5s113.166 -70.5 194.499 -70.5c46.667 0 105 10 175 30v237z" />
    <glyph glyph-name="H" unicode="H" horiz-adv-x="540" 
d="M448 339v274h65v-611h-65v294h-382v-294h-64v611h64v-274h382z" />
    <glyph glyph-name="I" unicode="I" horiz-adv-x="101" 
d="M5 613h65v-611h-65v611z" />
    <glyph glyph-name="J" unicode="J" horiz-adv-x="340" 
d="M246 613h67v-468c0 -51.333 -15 -91.333 -45 -120s-72.333 -43 -127 -43c-36 0 -77 6.66699 -123 20l-7 50c50.667 -15.333 91.667 -23 123 -23c74.667 0 112 38.667 112 116v468z" />
    <glyph glyph-name="K" unicode="K" horiz-adv-x="454" 
d="M311 613l-245 -288l280 -323h81l-297 330l252 281h-71zM2 613h64v-611h-64v611z" />
    <glyph glyph-name="L" unicode="L" horiz-adv-x="397" 
d="M11 613h64v-568h295v-43h-359v611z" />
    <glyph glyph-name="M" unicode="M" horiz-adv-x="654" 
d="M2 613h86l223 -547l223 547h93v-611h-57v539l-224 -539h-64l-223 539v-539h-57v611z" />
    <glyph glyph-name="N" unicode="N" horiz-adv-x="570" 
d="M5 613h79l396 -547v547h58v-611h-79l-396 539v-539h-58v611z" />
    <glyph glyph-name="O" unicode="O" horiz-adv-x="674" 
d="M584 304c0 85.333 -23 150.998 -69 196.998s-109.333 69 -190 69c-86 0 -151.833 -26.833 -197.5 -80.5s-68.5 -120.5 -68.5 -200.5c0 -19.333 2.16699 -39.333 6.5 -60s12.5 -42.667 24.5 -66s27.333 -44 46 -62s43.667 -33 75 -45s67 -18 107 -18
c50 0 93 7.83301 129 23.5s63.5 36.834 82.5 63.501s32.833 54.834 41.5 84.501s13 61.167 13 94.5zM2 324.998c0 82.667 29.833 152.499 89.5 209.499s139.834 85.5 240.501 85.5c99.333 0 177.166 -27.5 233.499 -82.5s84.5 -128.167 84.5 -219.5
c0 -24 -1.66699 -47.667 -5 -71s-11.5 -51.166 -24.5 -83.499s-30.167 -60.5 -51.5 -84.5s-52.5 -45 -93.5 -63s-88.833 -27.667 -143.5 -29h-16c-102 0 -180.167 29.5 -234.5 88.5s-81.5 135.5 -81.5 229.5c-0 2 0.333008 5.5 1 10.5s1 8.16699 1 9.5z" />
    <glyph glyph-name="P" unicode="P" horiz-adv-x="426" 
d="M7 613l209 -0.000976562c20.667 0 40.667 -2.33301 60 -7s38.5 -12.167 57.5 -22.5s34.167 -25.666 45.5 -45.999s17 -44.833 17 -73.5v-10c-0.666992 -26.667 -6.33398 -50 -17.001 -70s-23.5 -35.667 -38.5 -47s-32.833 -20.666 -53.5 -27.999s-40 -12.166 -58 -14.499
s-36.667 -3.5 -56 -3.5c-0.666992 0 -22.667 1.66699 -66 5l-14 43c2.66699 0 10.834 -1.16699 24.501 -3.5s24.5 -3.5 32.5 -3.5c19.333 0 38.333 1.83301 57 5.5s37.167 9.5 55.5 17.5s33.5 19.167 45.5 33.5s19.333 31.166 22 50.499c0 2.66699 0.333008 6.5 1 11.5
s1 8.5 1 10.5c0 33.333 -12.833 58.666 -38.5 75.999s-56.167 26 -91.5 26h-131v-561h-64v611z" />
    <glyph glyph-name="Q" unicode="Q" horiz-adv-x="685" 
d="M588 318c0 74.667 -20.833 136.499 -62.5 185.499s-104.834 73.5 -189.501 73.5c-87.333 0 -151.833 -20 -193.5 -60s-65.834 -106.333 -72.501 -199c0 -1.33301 -0.333008 -4.16602 -1 -8.49902s-1 -6.83301 -1 -7.5c0 -21.333 2.83301 -43.166 8.5 -65.499
s14.834 -44.833 27.501 -67.5s28.334 -43 47.001 -61s42 -32.833 70 -44.5s59 -17.834 93 -18.501c1.33301 0 3.83301 -0.333008 7.5 -1s6.16699 -1 7.5 -1c76 0 138.167 23.667 186.5 71s72.5 110 72.5 188v16zM5 317.999c11.333 206 124 308.999 338 308.999
c38 0 74.333 -5.5 109 -16.5s67 -28 97 -51s54.167 -55.167 72.5 -96.5s28.5 -89.666 30.5 -144.999c0 -135.333 -47.667 -226.333 -143 -273c1.33301 0 3.83301 -0.333008 7.5 -1s5.83398 -1 6.50098 -1c12 0 25.667 2 41 6s32.833 9.5 52.5 16.5s34.5 11.833 44.5 14.5
l-16 -64l-302 -21h-16c-58.667 0 -109.834 10 -153.501 30s-77.167 46.5 -100.5 79.5s-40.5 67.333 -51.5 103s-16.5 72.5 -16.5 110.5z" />
    <glyph glyph-name="R" unicode="R" horiz-adv-x="426" 
d="M2 613l223 0.00195312c44.667 0 83.167 -13.833 115.5 -41.5s48.5 -63.834 48.5 -108.501v-15c0 -48 -18.333 -85.833 -55 -113.5s-76 -41.5 -118 -41.5c-3.33301 0 -8.16602 0.5 -14.499 1.5s-10.5 1.5 -12.5 1.5l209 -294h-80l-216 323c4 0 10.667 -0.333008 20 -1
s15.666 -1 18.999 -1c60 0 105 9.66699 135 29s46.333 50.666 49 93.999v13c0 40 -13 68.5 -39 85.5s-56 25.5 -90 25.5h-130v-568h-64v611z" />
    <glyph glyph-name="S" unicode="S" horiz-adv-x="377" 
d="M286 138c-2.66699 22.667 -14.001 45.4961 -34.001 68.4961s-43.167 44.5 -69.5 64.5l-79 60.5c-26.333 20.333 -49 42.5 -68 66.5s-29.167 48 -30.5 72c0 1.33301 -0.166992 4.33301 -0.5 9s-0.5 8 -0.5 10c0 24.667 5.5 45.834 16.5 63.501s25.833 30.834 44.5 39.501
s38 14.834 58 18.501s41.667 5.5 65 5.5c46.667 0 86.334 -3.66699 119.001 -11l7 -50c-44 12 -86.667 18 -128 18c-12 0 -27 -1 -45 -3c-23.333 -8 -41.333 -19.667 -54 -35s-19 -32.333 -19 -51c0 -12 3 -24.667 9 -38c10.667 -22.667 28.834 -45.5 54.501 -68.5
s55.167 -46.833 88.5 -71.5s57.666 -44.667 72.999 -60c36.667 -38.667 55 -79.667 55 -123c0 -35.333 -14 -65.666 -42 -90.999s-66.333 -40.333 -115 -45c-80 0 -139.333 9.66699 -178 29l-8 57c52 -27.333 105 -41 159 -41c36 0 65.333 8.5 88 25.5s34 43.833 34 80.5z
" />
    <glyph glyph-name="T" unicode="T" horiz-adv-x="483" 
d="M196 570h-185v43h444v-43h-192v-568h-67v568z" />
    <glyph glyph-name="U" unicode="U" horiz-adv-x="560" 
d="M463 613l64.002 0.00390625v-411c0 -74.667 -21.667 -129.167 -65 -163.5s-110.333 -51.5 -201 -51.5c-71.333 0 -131.5 16.667 -180.5 50s-73.5 81.666 -73.5 144.999c0 1.33301 0.333008 3.5 1 6.5s1 5.16699 1 6.5v418h64v-411c0 -27.333 4.33301 -51.5 13 -72.5
s19.5 -37.667 32.5 -50s28.167 -22.333 45.5 -30s33.833 -12.834 49.5 -15.501s31.5 -4 47.5 -4c25.333 0 49.166 2.66699 71.499 8s43.666 14.166 63.999 26.499s36.5 30.166 48.5 53.499s18 51.333 18 84v411z" />
    <glyph glyph-name="V" unicode="V" horiz-adv-x="636" 
d="M545 613h64l-288 -611h-71l-245 611h65l216 -568z" />
    <glyph glyph-name="W" unicode="W" horiz-adv-x="904" 
d="M407 389l-86 224h65l50 -150l73 150h64l-109 -224l124 -330l223 554h64l-252 -611h-71l-116 316l-143 -316h-73l-215 611h65l187 -554z" />
    <glyph glyph-name="X" unicode="X" horiz-adv-x="570" 
d="M234 318l-207 295h71l181 -245l178 245h73l-223 -295l231 -316h-81l-186 273l-194 -273h-72z" />
    <glyph glyph-name="Y" unicode="Y" horiz-adv-x="522" 
d="M209 2v273l-200 338h71l165 -288l173 288h73l-216 -338v-273h-66z" />
    <glyph glyph-name="Z" unicode="Z" horiz-adv-x="474" 
d="M375 570h-352v43h418v-58l-368 -510h359v-43h-423v57z" />
    <glyph glyph-name="bracketleft" unicode="[" horiz-adv-x="149" 
d="M4 613h121v-36h-64v-740h64v-35h-121v811z" />
    <glyph glyph-name="backslash" unicode="\" horiz-adv-x="397" 
d="M5 605h65l294 -603h-64z" />
    <glyph glyph-name="bracketright" unicode="]" horiz-adv-x="149" 
d="M68 577h-57v36h114v-811h-114v35h57v740z" />
    <glyph glyph-name="asciicircum" unicode="^" horiz-adv-x="474" 
d="M232 570l-159 -324h-64l186 359h73l180 -359h-66z" />
    <glyph glyph-name="underscore" unicode="_" horiz-adv-x="493" 
d="M4 -279v50h460v-50h-460z" />
    <glyph glyph-name="grave" unicode="`" horiz-adv-x="158" 
d="M127 605l-43 -142h-79l86 142h36z" />
    <glyph glyph-name="a" unicode="a" horiz-adv-x="417" 
d="M332 2l0.00488281 265.995c-32.667 -20 -75.334 -37.333 -128.001 -52c-98 -19.333 -147 -55 -147 -107c0 -1.33301 0.333008 -3.5 1 -6.5s1 -5.5 1 -7.5c3.33301 -23.333 15.666 -40.5 36.999 -51.5s47 -16.5 77 -16.5c36.667 0 70.667 6 102 18l-7 -43
c-26.667 -10 -63 -15 -109 -15c-19.333 0 -37.5 1.83301 -54.5 5.5s-33.333 9.83398 -49 18.501s-28.334 21.334 -38.001 38.001s-14.834 36.667 -15.501 60c0 38 14.5 67.833 43.5 89.5s78.833 42.5 149.5 62.5c8.66699 2.66699 20.167 5.66699 34.5 9s25.166 6 32.499 8
s16 5 26 9s17.5 8.33301 22.5 13s9.5 10.834 13.5 18.501s6.66699 16.834 8 27.501v4c0 22.667 -12 39.334 -36 50.001s-53.667 16 -89 16c-60 0 -111.667 -9 -155 -27l7 50c46 14.667 94.667 22 146 22c52.667 0 96.5 -9.33301 131.5 -28s52.5 -47.667 52.5 -87v-344h-57z
" />
    <glyph glyph-name="b" unicode="b" horiz-adv-x="474" 
d="M66 404l-0.00195312 -195.002c0 -51.333 14 -92.666 42 -123.999s67 -47 117 -47c22 0 41.5 3 58.5 9s33.333 16.333 49 31s27.834 36.834 36.501 66.501s13 66.167 13 109.5c0 54 -16.667 96 -50 126s-78.666 45 -135.999 45c-38.667 0 -82 -7 -130 -21z
M8.99805 612.998l56.999 -0.00292969v-174c40.667 18 89 27 145 27c28.667 0 55.834 -3.66699 81.501 -11s50 -19.166 73 -35.499s41.333 -39.666 55 -69.999s20.5 -66.5 20.5 -108.5v-9c0 -79.333 -19.833 -138.666 -59.5 -177.999s-87.167 -59 -142.5 -59
c-34.667 0 -68.167 7.83301 -100.5 23.5s-56.5 36.167 -72.5 61.5v-78h-57v611z" />
    <glyph glyph-name="c" unicode="c" horiz-adv-x="377" 
d="M4 232c0.666992 44.667 7.33203 82.833 19.999 114.5s30.167 55.834 52.5 72.501s45.833 28.667 70.5 36s52 11 82 11c36 0 73.333 -4 112 -12l7 -58c-39.333 18 -79.666 27 -120.999 27c-48.667 0 -88.5 -15.667 -119.5 -47s-46.5 -79.333 -46.5 -144
c0 -62.667 14.5 -111.334 43.5 -146.001s70.5 -52 124.5 -52c28 0 67.667 8.33301 119 25l-14 -57c-34 -6 -66.667 -9 -98 -9c-74 0 -131.167 19.667 -171.5 59s-60.5 99.333 -60.5 180z" />
    <glyph glyph-name="d" unicode="d" horiz-adv-x="454" 
d="M368 411c-28.667 8 -60.333 12 -95 12c-24.667 0 -48.167 -2.83301 -70.5 -8.5s-44.333 -14.834 -66 -27.501s-39.5 -31.667 -53.5 -57s-22 -55.666 -24 -90.999c0 -1.33301 -0.333008 -4.33301 -1 -9s-1 -8 -1 -10c0 -52 13.667 -96.667 41 -134s62.666 -56 105.999 -56
s79.833 13.667 109.5 41s47.834 71 54.501 131v209zM368.001 454l0.000976562 159h59v-611h-59v86c-10 -25.333 -28 -48.5 -54 -69.5s-62.667 -31.5 -110 -31.5c-58 0 -106.5 19.833 -145.5 59.5s-58.5 93.167 -58.5 160.5c0 1.33301 0.333008 3.83301 1 7.5s1 6.5 1 8.5
c2 46 11.667 85.833 29 119.5s39.5 59.167 66.5 76.5s54.5 29.833 82.5 37.5s57.333 11.5 88 11.5c37.333 0 70.666 -4.66699 99.999 -14z" />
    <glyph glyph-name="e" unicode="e" horiz-adv-x="435" 
d="M354 289l0.000976562 14.999c0 37.333 -11.167 66.833 -33.5 88.5s-51.833 32.5 -88.5 32.5c-27.333 -1.33301 -51 -5.66602 -71 -12.999s-35 -14.833 -45 -22.5s-18.333 -19 -25 -34s-10.834 -26 -12.501 -33s-3.5 -18.167 -5.5 -33.5h281zM9.00098 231.999
c0 79.333 21.5 138.832 64.5 178.499s93.5 59.5 151.5 59.5c56 0 101.333 -19 136 -57s52 -82.333 52 -133c0 -2.66699 -0.333008 -7 -1 -13s-1 -10.333 -1 -13h-345c0 -80.667 16.333 -138.167 49 -172.5s74.667 -51.5 126 -51.5c37.333 0 84.333 9.66699 141 29l-7 -50
c-46 -13.333 -90.667 -20 -134 -20c-70 0 -126.167 20.333 -168.5 61s-63.5 101.334 -63.5 182.001z" />
    <glyph glyph-name="f" unicode="f" horiz-adv-x="302" 
d="M68 411h-57.001v43h57v73c0 65.333 42.667 98 128 98c8.66699 0 17.834 -0.333008 27.501 -1s19 -1.5 28 -2.5s15.167 -1.5 18.5 -1.5l7 -43c-32.667 6 -57 9 -73 9c-51.333 0 -80 -22 -86 -66v-66h130v-43h-130v-409h-50v409z" />
    <glyph glyph-name="g" unicode="g" horiz-adv-x="483" 
d="M396 404c-37.333 10.667 -72.999 16.002 -106.999 16.002c-63.333 0 -116.333 -17.833 -159 -53.5s-64 -85.834 -64 -150.501c0 -0.666992 -0.333008 -2.16699 -1 -4.5s-1 -3.83301 -1 -4.5c0 -56.667 15.667 -100.834 47 -132.501s68.666 -47.5 111.999 -47.5
c45.333 0 85.5 17.5 120.5 52.5s52.5 82.833 52.5 143.5v181zM396.001 -19.998l0.00195312 115c-30 -72 -91.667 -108 -185 -108c-59.333 0 -107.833 19.167 -145.5 57.5s-56.5 90.833 -56.5 157.5c2.66699 89.333 29.5 155.333 80.5 198s119.833 64 206.5 64
c46 0 99 -6 159 -18v-480c0 -120 -72 -180 -216 -180c-40.667 0 -98.334 7.66699 -173.001 23v50c63.333 -20 119.333 -30 168 -30c49.333 0 88.666 12 117.999 36s44 62.333 44 115z" />
    <glyph glyph-name="h" unicode="h" horiz-adv-x="445" 
d="M2 613l50 -0.000976562v-245c20.667 33.333 47.667 58.333 81 75s68.666 25 105.999 25c48 0 90.167 -12.167 126.5 -36.5s54.5 -55.166 54.5 -92.499v-337h-59v334c0 24 -13.5 44.167 -40.5 60.5s-58.167 24.5 -93.5 24.5c-40 0 -76.167 -11.5 -108.5 -34.5
s-52.166 -57.833 -59.499 -104.5v-280h-57v611z" />
    <glyph glyph-name="i" unicode="i" horiz-adv-x="101" 
d="M5 613h72v-58h-72v58zM13 454h57v-452h-57v452z" />
    <glyph glyph-name="j" unicode="j" horiz-adv-x="311" 
d="M11 -148c42 -13.333 76.332 -19.999 102.999 -19.999c64.667 0 99.334 37.667 104.001 113v509h57v-538c0 -10.667 -0.5 -20.334 -1.5 -29.001s-4.5 -19.667 -10.5 -33s-14 -24.333 -24 -33s-25 -16.167 -45 -22.5s-43.667 -9.5 -71 -9.5c-32 0 -69.333 4.33301 -112 13
v50zM210.999 613.001h71v-58h-71v58z" />
    <glyph glyph-name="k" unicode="k" horiz-adv-x="379" 
d="M9 613h50v-611h-50v611zM246 454l-187 -193l223 -259h72l-231 259l195 193h-72z" />
    <glyph glyph-name="l" unicode="l" horiz-adv-x="92" 
d="M61 613v-611h-50v611h50z" />
    <glyph glyph-name="m" unicode="m" horiz-adv-x="674" 
d="M59 454l-0.000976562 -72.001c8.66699 23.333 26.5 42 53.5 56s56.833 21 89.5 21c32 0 61.333 -7 88 -21s45.334 -35 56.001 -63c14.667 27.333 37.167 48.5 67.5 63.5s62.166 22.5 95.499 22.5c38.667 0 71.834 -10 99.501 -30s41.5 -48.333 41.5 -85v-344h-59v337
c0 22.667 -9.83301 40.334 -29.5 53.001s-43.167 19 -70.5 19c-35.333 0 -67 -10.833 -95 -32.5s-42 -51.5 -42 -89.5v-287h-58v330c0 24.667 -9.33301 43.667 -28 57s-41.334 20 -68.001 20c-35.333 0 -67.666 -11.333 -96.999 -34s-44 -53.667 -44 -93v-280h-57v452h57z
" />
    <glyph glyph-name="n" unicode="n" horiz-adv-x="445" 
d="M59 2l-56.998 0.00195312v452h57v-93c6 31.333 27 56.166 63 74.499s76.333 27.5 121 27.5c47.333 0 88.666 -10.833 123.999 -32.5s53 -52.167 53 -91.5v-337h-59v323c0 27.333 -14.167 50.5 -42.5 69.5s-60.833 28.5 -97.5 28.5
c-42.667 0 -79.834 -14.833 -111.501 -44.5s-48.5 -73.834 -50.5 -132.501v-244z" />
    <glyph glyph-name="o" unicode="o" horiz-adv-x="483" 
d="M232 463c71.333 -4 126.332 -29.666 164.999 -76.999s58 -104 58 -170c0 -62 -19.167 -115.667 -57.5 -161s-91.166 -68 -158.499 -68h-7c-70 0 -124.667 23.167 -164 69.5s-59 100.833 -59 163.5c0 63.333 19.833 119.166 59.5 167.499s94.167 73.5 163.5 75.5z
M231.999 418.001c-58 -3.33301 -101.332 -23.999 -129.999 -61.999s-43 -84.667 -43 -140c4 -50 22.167 -93.5 54.5 -130.5s74.166 -55.5 125.499 -55.5c55.333 0 97.833 17.667 127.5 53s44.5 78 44.5 128c0 53.333 -16 101.166 -48 143.499s-73.667 63.5 -125 63.5h-6z
" />
    <glyph glyph-name="p" unicode="p" horiz-adv-x="454" 
d="M9 432l-4.99609 0.000976562c0 1.33301 8.66699 4.16602 26 8.49902s41 8.5 71 12.5s59 6 87 6c70 0 120.333 -11.333 151 -34c27.333 -18 48.833 -46.167 64.5 -84.5s23.5 -79.166 23.5 -122.499c0 -48.667 -10.5 -93 -31.5 -133s-51.5 -67.667 -91.5 -83
c-38.667 -8.66699 -66.334 -13 -83.001 -13c-20.667 0 -40.334 3 -59.001 9s-33.834 13.167 -45.501 21.5s-21.834 16.666 -30.501 24.999s-15.167 15.5 -19.5 21.5s-6.83301 9 -7.5 9v-273h-50v630zM59.0039 389.001l0.000976562 -180.003
c0 -45.333 14.5 -87.666 43.5 -126.999s68.167 -59 117.5 -59c7.33301 0 23.333 2.33301 48 7c30 8 55.333 33.167 76 75.5s31 86.833 31 133.5c0 36.667 -7.16699 69.334 -21.5 98.001s-35.833 48.334 -64.5 59.001c-40.667 16 -77.334 24 -110.001 24
c-32 0 -72 -10.333 -120 -31z" />
    <glyph glyph-name="q" unicode="q" horiz-adv-x="465" 
d="M432 446l0.00390625 -630.001h-59v272c-8.66699 -28.667 -28.334 -51.667 -59.001 -69s-64.334 -26 -101.001 -26c-55.333 0 -103.5 18.333 -144.5 55s-61.5 90.334 -61.5 161.001c0 45.333 7.83301 84.833 23.5 118.5s37.167 60 64.5 79s57.666 33.167 90.999 42.5
s69.666 14 108.999 14c36 0 81.667 -5.66699 137 -17zM373.004 410.999c-3.33301 0.666992 -11.6641 1.83008 -24.9971 3.49707s-26.833 3.16699 -40.5 4.5s-26.834 2 -39.501 2c-96.667 0 -162.334 -46.333 -197.001 -139c-6.66699 -25.333 -10 -47.333 -10 -66
c0 -47.333 14 -89.166 42 -125.499s67.333 -54.5 118 -54.5c3.33301 0 8.66602 0.333008 15.999 1s12.333 1 15 1c40.667 6.66699 71 26.334 91 59.001s30 72.334 30 119.001v195z" />
    <glyph glyph-name="r" unicode="r" horiz-adv-x="263" 
d="M61 454l0.000976562 -78.999c16.667 28.667 37.5 50.667 62.5 66s49.833 23 74.5 23c13.333 0 23 -0.333008 29 -1l7 -52c-10.667 4.66699 -21.334 7 -32.001 7c-32 0 -63.5 -13.833 -94.5 -41.5s-46.5 -63.834 -46.5 -108.501v-266h-57v452h57z" />
    <glyph glyph-name="s" unicode="s" horiz-adv-x="311" 
d="M263 446l7 -50c-32 12 -67.667 18 -107 18c-25.333 0 -46.666 -4.66699 -63.999 -14s-26 -23.666 -26 -42.999c0 -0.666992 0.333008 -2.33398 1 -5.00098s1 -4.66699 1 -6c11.333 -25.333 26.666 -46.833 45.999 -64.5s38 -31.167 56 -40.5s37.167 -24 57.5 -44
s36.833 -44.667 49.5 -74v-23c0 -71.333 -51.333 -107 -154 -107c-44 0 -83.667 5.33301 -119 16l-7 50c41.333 -18 84.666 -27 129.999 -27c32.667 0 56.334 6.66699 71.001 20c14.667 14 22 28.667 22 44s-6.33301 30.5 -19 45.5s-37.167 37 -73.5 66
s-60.833 49.167 -73.5 60.5c-30 38 -45 70.667 -45 98c0 29.333 14.333 51.5 43 66.5s65 22.5 109 22.5c40 0 71.667 -3 95 -9z" />
    <glyph glyph-name="t" unicode="t" horiz-adv-x="292" 
d="M125 548l-0.00195312 -94.001h130v-43h-130v-316c4 -43.333 23.667 -65 59 -65c16.667 0 43 7.33301 79 22v-36c-3.33301 -6 -13.666 -11.333 -30.999 -16s-35.666 -7 -54.999 -7c-28 0 -52.333 5.33301 -73 16s-32.667 27.334 -36 50.001v352h-57v43h57v87z" />
    <glyph glyph-name="u" unicode="u" horiz-adv-x="454" 
d="M64 454l0.000976562 -302c0 -35.333 11 -64.5 33 -87.5s49.333 -34.5 82 -34.5c0.666992 0 2.33398 -0.166992 5.00098 -0.5s4.33398 -0.5 5.00098 -0.5c45.333 0 86.166 16.833 122.499 50.5s54.5 72.167 54.5 115.5v259h59v-452h-59v86
c-6.66699 -28 -30.834 -52.667 -72.501 -74s-84.834 -32 -129.501 -32c-45.333 0 -82.833 13.167 -112.5 39.5s-44.5 67.5 -44.5 123.5v309h57z" />
    <glyph glyph-name="v" unicode="v" horiz-adv-x="465" 
d="M66 454l157 -409l159 409h57l-178 -452h-73l-179 452h57z" />
    <glyph glyph-name="w" unicode="w" horiz-adv-x="790" 
d="M5 454h58l157 -409l137 409h57l124 -409l157 409h66l-195 -452h-64l-116 394l-136 -394h-66z" />
    <glyph glyph-name="x" unicode="x" horiz-adv-x="435" 
d="M32 454h72l100 -172l116 172h64l-150 -208l171 -244h-64l-137 200l-136 -200h-57l164 244z" />
    <glyph glyph-name="y" unicode="y" horiz-adv-x="502" 
d="M38 454l64.001 0.00195312l150 -409l159 409h64l-230 -545c-13.333 -34 -33.5 -64.167 -60.5 -90.5s-58.833 -39.5 -95.5 -39.5c-22.667 0 -47 5.33301 -73 16l-7 57c24 -18 47.667 -27 71 -27c16.667 0 32 4.83301 46 14.5s27 24.167 39 43.5s21.167 35.666 27.5 48.999
s14.166 31.666 23.499 54.999z" />
    <glyph glyph-name="z" unicode="z" horiz-adv-x="360" 
d="M23 411v43h309v-58l-266 -351h259v-43h-316v50l273 359h-259z" />
    <glyph glyph-name="braceleft" unicode="{" horiz-adv-x="215" 
d="M191 598l0.00195312 -35.002c-2.66699 0 -7.33398 0.5 -14.001 1.5s-11.334 1.5 -14.001 1.5c-18 0 -30 -7.5 -36 -22.5s-9 -36.167 -9 -63.5v-212c0 -1.33301 -0.166992 -3.16602 -0.5 -5.49902s-1.66602 -7 -3.99902 -14s-5.5 -13.333 -9.5 -19
s-10.333 -11.834 -19 -18.501s-19 -12 -31 -16c44 -15.333 66 -43.333 66 -84c0 -2 -0.333008 -5.66699 -1 -11s-1 -9.33301 -1 -12v-165c0 -16.667 0.166992 -28.667 0.5 -36s1.16602 -15.833 2.49902 -25.5s3.83301 -16 7.5 -19s8.66699 -5.83301 15 -8.5s14.5 -4 24.5 -4
h23v-35h-25c-34.667 0 -60.834 5.5 -78.501 16.5s-26.5 22.167 -26.5 33.5v228c0 4 0.333008 9.66699 1 17s1 12.333 1 15c0 28 -4.83301 47.167 -14.5 57.5s-19.5 15.333 -29.5 15s-15 0.5 -15 2.5v36c4.66699 3.33301 12.334 5 23.001 5s19 3 25 9s9 18.667 9 38
c0 148.667 2.33301 237.334 7 266.001c2.66699 16.667 6.33398 28.834 11.001 36.501s15.667 14.167 33 19.5s43.666 8 78.999 8z" />
    <glyph glyph-name="bar" unicode="|" horiz-adv-x="92" 
d="M4 605h57v-603h-57v603z" />
    <glyph glyph-name="braceright" unicode="}" horiz-adv-x="215" 
d="M13 605l26.0039 0.00390625c8.66699 0 16.667 -0.5 24 -1.5s13.5 -2 18.5 -3s9.66699 -3 14 -6s7.5 -5 9.5 -6s4.5 -4 7.5 -9s4.83301 -8.16699 5.5 -9.5s2.16699 -5 4.5 -11s3.83301 -9.66699 4.5 -11v-259c0 -42 21.333 -66.333 64 -73v-36
c-4 0 -8.83301 -0.333008 -14.5 -1s-14.334 -3.83398 -26.001 -9.50098s-19.5 -13.834 -23.5 -24.501v-272c0 -47.333 -31.667 -71 -95 -71h-27v28c33.333 3.33301 51.666 6 54.999 8s6.66602 13.667 9.99902 35c2.66699 24 4 71.167 4 141.5s1 113.833 3 130.5
c0 9.33301 4.66699 19.666 14 30.999s23.666 20 42.999 26c-15.333 2.66699 -29 11.167 -41 25.5s-18 30.166 -18 47.499c0 1.33301 0.333008 3.83301 1 7.5s1 5.83398 1 6.50098l-4 -21v3c0 4 0.666992 34.333 2 91s2 98.667 2 126v46
c-2.66699 15.333 -6.66699 25.166 -12 29.499s-14 6.5 -26 6.5h-26v35z" />
    <glyph glyph-name="asciitilde" unicode="~" horiz-adv-x="483" 
d="M9 209c6 0.666992 13.165 7.33203 21.498 19.999s20 25 35 37s34.167 18 57.5 18c32.667 0 76.334 -12.667 131.001 -38c30.667 -17.333 56 -26 76 -26c18.667 0 35.334 5.16699 50.001 15.5s24.667 20.5 30 30.5l8 16l37 -36c-1.33301 -2 -3 -5 -5 -9
s-6.83301 -10.667 -14.5 -20s-16 -17.666 -25 -24.999s-20.667 -14 -35 -20s-29.5 -9 -45.5 -9c-25.333 0 -53.333 8.33301 -84 25c-8 0.666992 -25 7.66699 -51 21s-47 20 -63 20c-31.333 0 -60.333 -21 -87 -63z" />
    <glyph glyph-name="exclamdown" unicode="&#xa1;" horiz-adv-x="101" 
d="M11 339h57v-494h-57v494zM75 454v-65h-71v65h71z" />
    <glyph glyph-name="cent" unicode="&#xa2;" horiz-adv-x="368" 
d="M173 541l-0.000976562 79.001h50v-79h20c31.333 0 60.333 -4.66699 87 -14l8 -57c-8 4.66699 -23.333 10 -46 16s-45.667 9 -69 9c-94 0 -149.333 -54.333 -166 -163c0 -2.66699 -0.333008 -7 -1 -13s-1 -10 -1 -12c0 -67.333 18.5 -117.166 55.5 -149.499
s81.167 -48.5 132.5 -48.5c22.667 0 49.334 4.66699 80.001 14l15 -43c-57.333 -9.33301 -95.666 -14 -114.999 -14v-71h-50v71c-56 12 -98.5 39.667 -127.5 83s-43.5 92.333 -43.5 147c0 61.333 16.167 116.666 48.5 165.999s73.166 75.666 122.499 78.999z" />
    <glyph glyph-name="sterling" unicode="&#xa3;" horiz-adv-x="463" 
d="M75 325c-6.66699 10.667 -16.668 33.001 -30.001 67.001s-20 54.667 -20 62c-2.66699 13.333 -4 24 -4 32c0 61.333 34.667 101 104 119c22.667 7.33301 55.334 11 98.001 11c44.667 0 81.667 -3.66699 111 -11l7 -50c0 2 -5 4.33301 -15 7s-23.5 5.16699 -40.5 7.5
s-34.167 3.5 -51.5 3.5c-38.667 0 -72.334 -6.33301 -101.001 -19s-45.667 -33.667 -51 -63c0 -0.666992 -0.333008 -3 -1 -7s-1 -6.33301 -1 -7c0 -16.667 3.16699 -34.667 9.5 -54s14.5 -39.333 24.5 -60s16 -33.334 18 -38.001h202l-7 -43h-181
c0 -8.66699 1.33301 -22.667 4 -42s4 -34 4 -44c0 -39.333 -16.667 -78 -50 -116c16 4 30.667 6 44 6c24 0 57 -9 99 -27s76.333 -27 103 -27c24.667 0 53.334 6.66699 86.001 20l-15 -57c0 -1.33301 -9.33301 -2 -28 -2c-12 0 -29.333 0.333008 -52 1s-34.667 1 -36 1
c-12.667 4 -33.167 11.5 -61.5 22.5s-52.5 19.5 -72.5 25.5s-37.667 9 -53 9c-10.667 0 -22 -3 -34 -9s-24.5 -13.667 -37.5 -23s-22.5 -15.333 -28.5 -18v57c0 3.33301 4.33301 8.33301 13 15s18 14.5 28 23.5s19.333 24.333 28 46s13 47.5 13 77.5
c0 12.667 -1.33301 33 -4 61h-92l7 43h64z" />
    <glyph glyph-name="currency" unicode="&#xa4;" horiz-adv-x="502" 
d="M45 534l50 -49.999c33.333 33.333 81 50 143 50c58 0 103.667 -16.667 137 -50l59 50l43 -36l-52 -44c-2.66699 -2.66699 -4 -4.66699 -4 -6c0 -2 3.83301 -9 11.5 -21s15.5 -28 23.5 -48s12 -41 12 -63c0 -45.333 -16.667 -95.333 -50 -150l52 -50l-36 -36l-52 50
c-4.66699 -4 -11 -8.83301 -19 -14.5s-24.5 -13.167 -49.5 -22.5s-49.833 -14 -74.5 -14c-49.333 0 -97.333 17 -144 51l-50 -50l-43 43l50 43v2c0 1.33301 -4 8.16602 -12 20.499s-15.833 28.833 -23.5 49.5s-11.5 42 -11.5 64c0 45.333 18 93.333 54 144l-57 52z
M225 130.001c2.66699 0 6.99805 -0.501953 12.998 -1.50195s10 -1.5 12 -1.5c46.667 0 84.834 19.333 114.501 58s44.5 82.334 44.5 131.001c0 66 -23.333 112 -70 138c-34.667 18.667 -69 28 -103 28c-39.333 0 -73.666 -12.167 -102.999 -36.5s-49.333 -54.833 -60 -91.5
c-9.33301 -29.333 -14 -52 -14 -68c0 -40 14 -74.667 42 -104s69.333 -46.666 124 -51.999z" />
    <glyph glyph-name="yen" unicode="&#xa5;" horiz-adv-x="502" 
d="M204 2v230h-166v36h166l-52 86h-122v42h93l-121 209h64l173 -287l165 287h73l-131 -209h95v-42h-123l-57 -86h173v-36h-173v-230h-57z" />
    <glyph glyph-name="brokenbar" unicode="&#xa6;" horiz-adv-x="120" 
d="M34 613h57v-618h-57v618z" />
    <glyph glyph-name="section" unicode="&#xa7;" horiz-adv-x="408" 
d="M14 268l-0.00195312 -1.99609c0.666992 0 2.66699 5 6 15s12.333 24.167 27 42.5s34.667 35.5 60 51.5c-19.333 10 -34.5 24.667 -45.5 44s-16.5 39.666 -16.5 60.999c0 37.333 14.167 70.166 42.5 98.499s67.5 42.5 117.5 42.5c32.667 0 67.334 -5.33301 104.001 -16
l14 -57c-33.333 24 -67.333 36 -102 36c-32.667 0 -60.167 -11.5 -82.5 -34.5s-33.5 -48.5 -33.5 -76.5c0 -16.667 5.16699 -32.667 15.5 -48s24.833 -27.333 43.5 -36c68.667 -28.667 121.334 -61.834 158.001 -99.501s55 -75.167 55 -112.5
c0 -54 -34.667 -100.333 -104 -139c17.333 -10.667 31.166 -26.834 41.499 -48.501s15.5 -44.5 15.5 -68.5c0 -30.667 -8.83301 -58.5 -26.5 -83.5s-44.5 -41.833 -80.5 -50.5c-24 -2 -42.333 -3 -55 -3c-49.333 0 -84 6 -104 18l-7 50c50 -16.667 88 -25 114 -25
c46.667 0 78.334 20 95.001 60c6 18 9 33 9 45c0 21.333 -9.33301 40.833 -28 58.5s-41.167 33.167 -67.5 46.5l-79 42c-26.333 14.667 -48.833 33.5 -67.5 56.5s-28 49.167 -28 78.5c0 14.667 3 32.667 9 54zM135.998 332.004c-19.333 -2.66699 -37.668 -15 -55.001 -37
s-26 -50 -26 -84c0 -1.33301 0.333008 -3.83301 1 -7.5s1 -6.5 1 -8.5c1.33301 -13.333 9.83301 -27.333 25.5 -42s31.334 -26.667 47.001 -36s36.167 -20.5 61.5 -33.5s41 -21.167 47 -24.5c26 4.66699 47.333 20 64 46s25 50 25 72c0 9.33301 -1.33301 15.333 -4 18
c-3.33301 28 -23.833 55 -61.5 81s-79.5 44.667 -125.5 56z" />
    <glyph glyph-name="dieresis" unicode="&#xa8;" horiz-adv-x="224" 
d="M7 598h64v-50h-64v50zM129 598h66v-50h-66v50z" />
    <glyph glyph-name="copyright" unicode="&#xa9;" horiz-adv-x="685" 
d="M343 613c22 0 44.502 -2.16699 67.502 -6.5s47.5 -11.5 73.5 -21.5s50.667 -25 74 -45s42.666 -43.333 57.999 -70c27.333 -56 41 -110.333 41 -163c0 -79.333 -32.667 -157.333 -98 -234c-22.667 -26 -53.667 -46.167 -93 -60.5s-81 -21.5 -125 -21.5
c-94.667 0 -173.334 27.333 -236.001 82c-68.667 66 -103 141.667 -103 227c0 83.333 30.833 156.333 92.5 219s138.5 94 230.5 94h18zM438.002 491l13.998 -45.0029c-40 11.333 -74.667 17 -104 17c-31.333 0 -58.5 -5.83301 -81.5 -17.5s-40 -26.667 -51 -45
s-19 -36.166 -24 -53.499s-7.5 -34.333 -7.5 -51c2.66699 -57.333 16.5 -98.666 41.5 -123.999s64.833 -38 119.5 -38c22.667 0 56 3.66699 100 11v-43c-36.667 -10.667 -69.667 -16 -99 -16c-25.333 0 -49.666 3.33301 -72.999 10s-46 17.167 -68 31.5s-40 35.333 -54 63
s-22 60.5 -24 98.5c0 2.66699 -0.333008 6.33398 -1 11.001s-1 7.66699 -1 9c0 62 20.333 110.167 61 144.5s91.334 51.5 152.001 51.5c32.667 0 66 -4.66699 100 -14zM595 388.997c-12.667 58 -43.8311 102.831 -93.498 134.498s-105.5 47.5 -167.5 47.5
c-38.667 0 -73.667 -5.33301 -105 -16c-52.667 -18 -94.834 -51.833 -126.501 -101.5s-47.5 -103.167 -47.5 -160.5c0 -62.667 20.333 -118.667 61 -168s99.667 -81 177 -95c5.33301 0 13.833 -0.833008 25.5 -2.5s20.5 -2.5 26.5 -2.5c43.333 0 82.166 9.33301 116.499 28
s61.5 42.834 81.5 72.501s35.167 60.834 45.5 93.501s15.5 65 15.5 97c0 26 -3 50.333 -9 73z" />
    <glyph glyph-name="ordfeminine" unicode="&#xaa;" horiz-adv-x="263" 
d="M20 477c8 4 21.001 9.00391 39.001 15.0039s33.667 11 47 15l21 6c39.333 8 59 22 59 42c0 9.33301 -5.5 17.666 -16.5 24.999s-24.167 11 -39.5 11h-17l-86 -21v43c33.333 9.33301 64.666 14 93.999 14c25.333 0 46.333 -2.33301 63 -7c36.667 -3.33301 55 -35 55 -95
c0 -11.333 -0.5 -26.833 -1.5 -46.5s-1.5 -32.834 -1.5 -39.501v-85h-43v144c-53.333 -18.667 -89.666 -30.334 -108.999 -35.001c-11.333 -4.66699 -20.5 -11.667 -27.5 -21s-10.5 -18.666 -10.5 -27.999c0 -14.667 8 -25.334 24 -32.001c11.333 -3.33301 20 -5 26 -5
c9.33301 0 19.5 1.16699 30.5 3.5s19.833 5 26.5 8s10 5.5 10 7.5l-8 -50c0 -3.33301 -13.667 -5 -41 -5c-28.667 0 -54.834 5.5 -78.501 16.5s-35.5 29.5 -35.5 55.5c0 17.333 6.66699 38.666 20 63.999z" />
    <glyph glyph-name="guillemotleft" unicode="&#xab;" horiz-adv-x="292" 
d="M134 232l87 164h43l-71 -164l71 -152h-50zM5 232l86 164h43l-71 -164l71 -152h-50z" />
    <glyph glyph-name="logicalnot" unicode="&#xac;" horiz-adv-x="474" 
d="M9 346h439v-237h-59v180h-380v57z" />
    <glyph glyph-name="registered" unicode="&#xae;" horiz-adv-x="665" 
d="M338 620c86.667 0 157.498 -30.499 212.498 -91.499s84.5 -133.5 88.5 -217.5v-18c0 -39.333 -6.16699 -76.5 -18.5 -111.5s-30.666 -67 -54.999 -96s-56.666 -52.333 -96.999 -70s-86.5 -27.167 -138.5 -28.5h-14c-66 0 -122.667 15.167 -170 45.5
s-81.666 68.333 -102.999 114s-32 95.167 -32 148.5c0 54.667 11.167 106.167 33.5 154.5s56.666 88.666 102.999 120.999s99.5 48.833 159.5 49.5h31zM199.998 491.001l122.999 0.000976562c39.333 0 69.5 -8.83301 90.5 -26.5s31.5 -38.5 31.5 -62.5
s-9.33301 -46.333 -28 -67s-42.667 -33.667 -72 -39l123 -166h-59l-136 195c14.667 -2.66699 25.334 -4 32.001 -4c28.667 0 51.667 7.66699 69 23s26 32.666 26 51.999c0 16 -6.16699 29.667 -18.5 41s-29.5 17 -51.5 17h-85v-324h-45v361zM113.997 484.002
c-12.667 -15.333 -23.167 -33.833 -31.5 -55.5s-13.5 -39.5 -15.5 -53.5l-3 -21c-2 -26 -3 -39.667 -3 -41c0 -74.667 24 -140.667 72 -198s109.667 -86 185 -86c1.33301 0 3.33301 0.166992 6 0.5s4.66699 0.5 6 0.5c62.667 0 117.667 19.5 165 58.5
s76.333 89.167 87 150.5c4 18 6 37.667 6 59c0 44.667 -10 88 -30 130s-48.333 76.833 -85 104.5s-77 42.5 -121 44.5h-32c-80 0 -148.667 -31 -206 -93z" />
    <glyph glyph-name="macron" unicode="&#xaf;" 
 />
    <glyph glyph-name="degree" unicode="&#xb0;" horiz-adv-x="204" 
d="M93 670c26.667 -2.66699 47.835 -11.832 63.502 -27.499s23.5 -32.167 23.5 -49.5v-9c0 -22 -8.33301 -40.667 -25 -56s-37.334 -23 -62.001 -23c-28.667 0 -51.334 8.16699 -68.001 24.5s-25 35.166 -25 56.499c0 22 8.16699 41.5 24.5 58.5s36.833 25.5 61.5 25.5h7z
M93.001 641.002c-20.667 0 -36.5 -5.50195 -47.5 -16.502s-16.5 -24.5 -16.5 -40.5c0 -15.333 5.5 -27.5 16.5 -36.5s26.833 -13.5 47.5 -13.5c19.333 0.666992 34 6.33398 44 17.001s15 22.334 15 35.001c0 14.667 -5.5 27.5 -16.5 38.5s-25.167 16.5 -42.5 16.5z" />
    <glyph glyph-name="plusminus" unicode="&#xb1;" horiz-adv-x="43" 
d="M789 -388z" />
    <glyph glyph-name="twosuperior" unicode="&#xb2;" horiz-adv-x="43" 
d="M789 -388z" />
    <glyph glyph-name="threesuperior" unicode="&#xb3;" horiz-adv-x="43" 
d="M789 -388z" />
    <glyph glyph-name="acute" unicode="&#xb4;" horiz-adv-x="158" 
d="M50 627h79l-79 -136h-43z" />
    <glyph glyph-name="paragraph" unicode="&#xb6;" horiz-adv-x="397" 
d="M366 620v-810.998h-43v775h-57v-775h-43v523c-25.333 -6 -45.333 -9 -60 -9c-47.333 0 -85.5 14.167 -114.5 42.5s-43.5 61.166 -43.5 98.499c0 41.333 18.167 77.666 54.5 108.999s87.833 47 154.5 47h152zM223 375.002l-0.00195312 209.001
c-21.333 0 -39.666 -1.16699 -54.999 -3.5s-32.666 -7 -51.999 -14s-34.833 -19.333 -46.5 -37s-18.167 -39.834 -19.5 -66.501c0 -34 11 -60.167 33 -78.5s48 -27.5 78 -27.5c20 0 40.667 6 62 18z" />
    <glyph glyph-name="periodcentered" unicode="&#xb7;" horiz-adv-x="292" 
d="M7 404h259v-252h-259v252z" />
    <glyph glyph-name="cedilla" unicode="&#xb8;" horiz-adv-x="176" 
d="M100 -41h50l-57 -114h-86z" />
    <glyph glyph-name="onesuperior" unicode="&#xb9;" horiz-adv-x="43" 
d="M789 -388z" />
    <glyph glyph-name="ordmasculine" unicode="&#xba;" horiz-adv-x="322" 
d="M152 620h10.999c36.667 0 66.167 -13.5 88.5 -40.5s34.833 -58.833 37.5 -95.5c0 -40.667 -12.167 -76.167 -36.5 -106.5s-60.166 -45.5 -107.499 -45.5c-44 7.33301 -78 24.833 -102 52.5s-36 58.5 -36 92.5c0 37.333 13.5 70.5 40.5 99.5s61.833 43.5 104.5 43.5z
M151.999 577l-14.001 0.00195312c-57.333 0 -86 -35.667 -86 -107c2.66699 -24.667 11.334 -47.334 26.001 -68.001s31.667 -31 51 -31c0.666992 0 3.16699 0.666992 7.5 2s7.16602 2 8.49902 2l4 -1c2.66699 -0.666992 4.33398 -1 5.00098 -1c24.667 0 45.667 11.5 63 34.5
s26 48.5 26 76.5c0 25.333 -7.66699 47.166 -23 65.499s-38 27.5 -68 27.5z" />
    <glyph glyph-name="guillemotright" unicode="&#xbb;" horiz-adv-x="293" 
d="M138 396h35l95 -157l-95 -159h-43l74 159zM16 396h36l93 -157l-93 -159h-43l71 159z" />
    <glyph glyph-name="onequarter" unicode="&#xbc;" horiz-adv-x="43" 
d="M789 -388z" />
    <glyph glyph-name="onehalf" unicode="&#xbd;" horiz-adv-x="43" 
d="M789 -388z" />
    <glyph glyph-name="threequarters" unicode="&#xbe;" horiz-adv-x="43" 
d="M789 -388z" />
    <glyph glyph-name="questiondown" unicode="&#xbf;" horiz-adv-x="379" 
d="M152 454h73v-65h-73v65zM23 38l-2.00293 -2.00098h-1c0 1.33301 10.167 16.166 30.5 44.499s32.833 44.833 37.5 49.5c30 30.667 49.333 56.334 58 77.001s13 45.667 13 75v64h52v-114c0 -21.333 -7.5 -42.666 -22.5 -63.999s-34.167 -44.666 -57.5 -69.999
s-40.333 -48 -51 -68c-15.333 -27.333 -23 -48 -23 -62c0 -18 6.83301 -33.5 20.5 -46.5s28.334 -22.167 44.001 -27.5s31.834 -10 48.501 -14s25.334 -6.33301 26.001 -7c57.333 0 107.333 9.66699 150 29v-43c-56.667 -14.667 -94.667 -22 -114 -22h-7
c-25.333 0 -49.5 1.83301 -72.5 5.5s-46.333 9.66699 -70 18s-42.5 21.166 -56.5 38.499s-21 38.333 -21 63c0 16 6 41.333 18 76z" />
    <glyph glyph-name="Agrave" unicode="&#xc0;" horiz-adv-x="645" 
d="M7 2l288 611h78l245 -611h-72l-108 287h-238l-121 -287h-72zM423 332l-93 238l-116 -238h209zM243 793h87l58 -138h-50z" />
    <glyph glyph-name="Aacute" unicode="&#xc1;" horiz-adv-x="645" 
d="M2 2l287 611h79l245 -611h-72l-109 287h-237l-122 -287h-71zM418 332l-93 238l-116 -238h209zM332 786h72l-72 -138h-43z" />
    <glyph glyph-name="Acircumflex" unicode="&#xc2;" horiz-adv-x="645" 
d="M236 648l44 109h108l50 -109h-43l-57 66l-58 -66h-44zM7 2l288 611h78l245 -611h-72l-108 287h-238l-121 -287h-72zM423 332l-93 238l-116 -238h209z" />
    <glyph glyph-name="Atilde" unicode="&#xc3;" horiz-adv-x="647" 
d="M5 2h72l121 287h238l109 -287h71l-245 611h-78zM421 332h-208l116 238zM205 684h7.99902h35v37c3.33301 14.667 11 22 23 22c10 0 32 -11.333 66 -34s59.333 -34 76 -34c22.667 0 39.667 15.333 51 46v58h-35c-1.33301 -8 -2.33301 -14.333 -3 -19l-2 -13.5
c-0.666992 -4.33301 -1.5 -7.5 -2.5 -9.5s-1.66699 -3.83301 -2 -5.5s-1.33301 -3 -3 -4s-3 -1.66699 -4 -2s-2.83301 -1 -5.5 -2s-5 -1.83301 -7 -2.5l-4 -1c-4.66699 0 -24.5 11.333 -59.5 34s-61.5 34 -79.5 34c-7.33301 0 -12.666 -0.666992 -15.999 -2
c-18.667 -6 -28 -20.333 -28 -43z" />
    <glyph glyph-name="Adieresis" unicode="&#xc4;" horiz-adv-x="645" 
d="M7 2l288 611h78l245 -611h-72l-108 287h-238l-121 -287h-72zM423 332l-93 238l-116 -238h209zM338 757v-57h-65v57h65zM395 757h64v-57h-64v57z" />
    <glyph glyph-name="Aring" unicode="&#xc5;" horiz-adv-x="645" 
d="M7 2l288 611h78l245 -611h-72l-108 287h-238l-121 -287h-72zM423 332l-93 238l-116 -238h209zM359 814l9 0.000976562c17.333 0 32.5 -7.83301 45.5 -23.5s21.167 -33.834 24.5 -54.501v-16c0 -20 -6.66699 -37 -20 -51s-33 -21 -59 -21s-46.833 8.5 -62.5 25.5
s-23.5 36.5 -23.5 58.5c0 21.333 7.83301 40.333 23.5 57s36.5 25 62.5 25zM359 786.001c-38 -5.33301 -57.001 -27.001 -57.001 -65.001c3.33301 -10.667 11 -20.667 23 -30s23.333 -14 34 -14c16.667 0 29.834 5.83301 39.501 17.5s14.5 24.834 14.5 39.501
c0 13.333 -4.5 25.333 -13.5 36s-20.833 16 -35.5 16h-5z" />
    <glyph glyph-name="AE" unicode="&#xc6;" horiz-adv-x="770" 
d="M398 563l50 -224h259v-57h-244l58 -237h208v-43h-259l-65 273h-201l-129 -273h-64l287 611h447v-50h-347zM391 339l-50 224l-109 -224h159z" />
    <glyph glyph-name="Ccedilla" unicode="&#xc7;" horiz-adv-x="531" 
d="M4 304c2.66699 106.667 32.5 185.667 89.5 237s136.5 77 238.5 77c48 0 97 -4.33301 147 -13l14 -64c-57.333 16.667 -113.333 25 -168 25c-78 0 -140.333 -21.167 -187 -63.5s-70 -108.5 -70 -198.5c0 -1.33301 -0.333008 -3.5 -1 -6.5s-1 -5.16699 -1 -6.5
c0 -90 24.667 -156.5 74 -199.5s112.333 -64.5 189 -64.5c56.667 0 113.667 10.667 171 32l-7 -57c-54.667 -12 -109 -18 -163 -18c-104.667 0 -185.167 28.167 -241.5 84.5s-84.5 134.833 -84.5 235.5zM277 -63h50l-57 -114h-88z" />
    <glyph glyph-name="Egrave" unicode="&#xc8;" horiz-adv-x="406" 
d="M2 613h373v-43h-309v-238h280v-43h-280v-244h302v-43h-366v611zM73 786h88l50 -138h-43z" />
    <glyph glyph-name="Eacute" unicode="&#xc9;" horiz-adv-x="406" 
d="M9 613h373v-43h-309v-238h281v-43h-281v-244h302v-43h-366v611zM189 786h79l-79 -138h-44z" />
    <glyph glyph-name="Ecircumflex" unicode="&#xca;" horiz-adv-x="406" 
d="M4 613h373v-43h-309v-238h280v-43h-280v-244h302v-43h-366v611zM96 641l43 109h109l50 -109h-43l-57 66l-59 -66h-43z" />
    <glyph glyph-name="Edieresis" unicode="&#xcb;" horiz-adv-x="406" 
d="M2 613h373v-43h-309v-238h280v-43h-280v-244h302v-43h-366v611zM116 714h66v-51h-66v51zM239 714h65v-51h-65v51z" />
    <glyph glyph-name="Igrave" unicode="&#xcc;" horiz-adv-x="167" 
d="M5 779h86l50 -138h-43zM63 613h64v-611h-64v611z" />
    <glyph glyph-name="Iacute" unicode="&#xcd;" horiz-adv-x="158" 
d="M55 793h79l-79 -138h-42zM5 613h65v-611h-65v611z" />
    <glyph glyph-name="Icircumflex" unicode="&#xce;" horiz-adv-x="235" 
d="M5 663l43 108h107l50 -108h-42l-58 66l-57 -66h-43zM63 613h64v-611h-64v611z" />
    <glyph glyph-name="Idieresis" unicode="&#xcf;" horiz-adv-x="215" 
d="M5 750h65v-50h-65v50zM127 750h64v-50h-64v50zM63 613h64v-611h-64v611z" />
    <glyph glyph-name="Eth" unicode="&#xd0;" horiz-adv-x="43" 
d="M789 -388z" />
    <glyph glyph-name="Ntilde" unicode="&#xd1;" horiz-adv-x="570" 
d="M5 613h79l396 -547v547h58v-611h-79l-396 539v-539h-58v611zM141 670c0 62.667 15 96.333 45 101h10c6 0 12.167 -0.833008 18.5 -2.5s13.333 -4.33398 21 -8.00098l19 -9c5 -2.33301 11.833 -6.16602 20.5 -11.499l18 -11c2.66699 -1.33301 6.5 -3.66602 11.5 -6.99902
s9.16699 -5.83301 12.5 -7.5l10.5 -5c3.66699 -1.66699 7.16699 -2.5 10.5 -2.5c17.333 0 26 21.333 26 64h38c1.33301 -10.667 2 -21.334 2 -32.001c0 -50.667 -20.333 -76 -61 -76c-22 4.66699 -48.5 18 -79.5 40s-52.167 33 -63.5 33c-9.33301 -10 -14 -32 -14 -66h-45z
" />
    <glyph glyph-name="Ograve" unicode="&#xd2;" horiz-adv-x="674" 
d="M584 311c0 85.333 -23 151 -69 197s-109.333 69 -190 69c-86 0 -151.833 -26.833 -197.5 -80.5s-68.5 -120.5 -68.5 -200.5c0 -19.333 2.16699 -39.333 6.5 -60s12.5 -42.667 24.5 -66s27.333 -44 46 -62s43.667 -33 75 -45s67 -18 107 -18s75.833 5.33301 107.5 16
s57.167 24.667 76.5 42s35.333 37.833 48 61.5s21.5 47.5 26.5 71.5s7.5 49 7.5 75zM2 332c0 82.667 29.833 152.497 89.5 209.497s139.834 85.5 240.501 85.5c99.333 0 177.166 -27.5 233.499 -82.5s84.5 -128.167 84.5 -219.5c0 -23.333 -1.66699 -46.666 -5 -69.999
s-11.5 -51.166 -24.5 -83.499s-30.167 -60.5 -51.5 -84.5s-52.5 -45 -93.5 -63s-88.833 -27.667 -143.5 -29h-16c-102 0 -180.167 29.333 -234.5 88s-81.5 135.334 -81.5 230.001c-0 2 0.333008 5.33301 1 10s1 7.66699 1 9zM246 806.997h86l50 -137h-43z" />
    <glyph glyph-name="Oacute" unicode="&#xd3;" horiz-adv-x="674" 
d="M584 311c0 85.333 -23 151 -69 197s-109.333 69 -190 69c-86 0 -151.833 -26.833 -197.5 -80.5s-68.5 -120.5 -68.5 -200.5c0 -19.333 2.16699 -39.333 6.5 -60s12.5 -42.667 24.5 -66s27.333 -44 46 -62s43.667 -33 75 -45s67 -18 107 -18s75.833 5.33301 107.5 16
s57.167 24.667 76.5 42s35.333 37.833 48 61.5s21.5 47.5 26.5 71.5s7.5 49 7.5 75zM2 332c0 82.667 29.833 152.497 89.5 209.497s139.834 85.5 240.501 85.5c99.333 0 177.166 -27.5 233.499 -82.5s84.5 -128.167 84.5 -219.5c0 -23.333 -1.66699 -46.666 -5 -69.999
s-11.5 -51.166 -24.5 -83.499s-30.167 -60.5 -51.5 -84.5s-52.5 -45 -93.5 -63s-88.833 -27.667 -143.5 -29h-16c-102 0 -180.167 29.333 -234.5 88s-81.5 135.334 -81.5 230.001c-0 2 0.333008 5.33301 1 10s1 7.66699 1 9zM325 792.997h79l-79 -138h-43z" />
    <glyph glyph-name="Ocircumflex" unicode="&#xd4;" horiz-adv-x="674" 
d="M584 311c0 85.333 -23 151 -69 197s-109.333 69 -190 69c-86 0 -151.833 -26.833 -197.5 -80.5s-68.5 -120.5 -68.5 -200.5c0 -19.333 2.16699 -39.333 6.5 -60s12.5 -42.667 24.5 -66s27.333 -44 46 -62s43.667 -33 75 -45s67 -18 107 -18s75.833 5.33301 107.5 16
s57.167 24.667 76.5 42s35.333 37.833 48 61.5s21.5 47.5 26.5 71.5s7.5 49 7.5 75zM2 332c0 82.667 29.833 152.497 89.5 209.497s139.834 85.5 240.501 85.5c99.333 0 177.166 -27.5 233.499 -82.5s84.5 -128.167 84.5 -219.5c0 -23.333 -1.66699 -46.666 -5 -69.999
s-11.5 -51.166 -24.5 -83.499s-30.167 -60.5 -51.5 -84.5s-52.5 -45 -93.5 -63s-88.833 -27.667 -143.5 -29h-16c-102 0 -180.167 29.333 -234.5 88s-81.5 135.334 -81.5 230.001c-0 2 0.333008 5.33301 1 10s1 7.66699 1 9zM225 683.997l43 109h107l52 -109h-45l-57 66
l-57 -66h-43z" />
    <glyph glyph-name="Otilde" unicode="&#xd5;" horiz-adv-x="674" 
d="M584 311c0 85.333 -23 151 -69 197s-109.333 69 -190 69c-86 0 -151.833 -26.833 -197.5 -80.5s-68.5 -120.5 -68.5 -200.5c0 -19.333 2.16699 -39.333 6.5 -60s12.5 -42.667 24.5 -66s27.333 -44 46 -62s43.667 -33 75 -45s67 -18 107 -18s75.833 5.33301 107.5 16
s57.167 24.667 76.5 42s35.333 37.833 48 61.5s21.5 47.5 26.5 71.5s7.5 49 7.5 75zM2 332c0 82.667 29.833 152.497 89.5 209.497s139.834 85.5 240.501 85.5c99.333 0 177.166 -27.5 233.499 -82.5s84.5 -128.167 84.5 -219.5c0 -23.333 -1.66699 -46.666 -5 -69.999
s-11.5 -51.166 -24.5 -83.499s-30.167 -60.5 -51.5 -84.5s-52.5 -45 -93.5 -63s-88.833 -27.667 -143.5 -29h-16c-102 0 -180.167 29.333 -234.5 88s-81.5 135.334 -81.5 230.001c-0 2 0.333008 5.33301 1 10s1 7.66699 1 9zM180 683.997
c0 63.333 14.998 97.334 44.998 102.001h11c4.66699 0 9.83398 -0.666992 15.501 -2s10.834 -2.83301 15.501 -4.5s10.5 -4.5 17.5 -8.5l15.5 -9l17 -10c8 -4.66699 13 -7.66699 15 -9c20.667 -13.333 35.667 -20 45 -20c18 0 27 21 27 63h37
c1.33301 -10.667 2 -21.334 2 -32.001c0 -51.333 -20.333 -77 -61 -77c-22 5.33301 -48.5 18.833 -79.5 40.5s-52.167 32.5 -63.5 32.5c-9.33301 -9.33301 -14 -31.333 -14 -66h-45z" />
    <glyph glyph-name="Odieresis" unicode="&#xd6;" horiz-adv-x="685" 
d="M589 311c0 85.333 -23 151 -69 197s-109.333 69 -190 69c-86 0 -151.833 -26.833 -197.5 -80.5s-68.5 -120.5 -68.5 -200.5c0 -19.333 2.16699 -39.333 6.5 -60s12.5 -42.667 24.5 -66s27.333 -44 46 -62s43.667 -33 75 -45s67 -18 107 -18s75.833 5.33301 107.5 16
s57.167 24.667 76.5 42s35.333 37.833 48 61.5s21.5 47.5 26.5 71.5s7.5 49 7.5 75zM7 332c0 82.667 29.834 152.498 89.501 209.498s140.167 85.5 241.5 85.5c98.667 0 176 -27.5 232 -82.5s84 -128.167 84 -219.5c0 -23.333 -1.66699 -46.666 -5 -69.999
s-11.333 -51.166 -24 -83.499s-29.667 -60.5 -51 -84.5s-52.333 -45 -93 -63s-88.334 -27.667 -143.001 -29h-17c-101.333 0 -179.333 29.5 -234 88.5s-82 135.5 -82 229.5c0 2 0.333008 5.33301 1 10s1 7.66699 1 9zM245.001 763.998h64v-50h-64v50zM366.001 763.998h64
v-50h-64v50z" />
    <glyph glyph-name="multiply" unicode="&#xd7;" horiz-adv-x="724" 
d="M470 563c-64 4.66699 -107 6.99902 -129 6.99902c-36.667 0 -69.5 -3.16699 -98.5 -9.5s-56.333 -17.166 -82 -32.499s-46 -37.666 -61 -66.999s-23.833 -65 -26.5 -107c0 -5.33301 -0.5 -13.666 -1.5 -24.999s-1.5 -19.333 -1.5 -24c0 -43.333 6.33301 -81.333 19 -114
s28.5 -58.334 47.5 -77.001s41.667 -33.834 68 -45.501s51.5 -19.5 75.5 -23.5s49 -6 75 -6c50.667 0 89 4.33301 115 13v511zM527 1.99902c-78 -8.66699 -133.334 -12.999 -166.001 -12.999c-195.333 0 -308.666 68 -339.999 204c-6 26.667 -10 73.667 -12 141v12
c0 18.667 1.83301 38 5.5 58s12.5 43.667 26.5 71s32.333 51.166 55 71.499s55.5 37.833 98.5 52.5s93.167 22 150.5 22c51.333 0 95.333 -2.66699 132 -8h216v-43h-166v-238h166v-43h-166v-244h166v-43h-166z" />
    <glyph glyph-name="Oslash" unicode="&#xd8;" horiz-adv-x="674" 
d="M484 591l43.001 64.001h57l-64 -85c40.667 -26 72.167 -63.333 94.5 -112s33.5 -100 33.5 -154s-10.833 -104.333 -32.5 -151s-56.334 -85.667 -104.001 -117s-104.5 -47 -170.5 -47c-54 0 -114.667 11.333 -182 34l-43 -64h-50l57 86
c-40.667 33.333 -71.667 72.666 -93 117.999s-32 92.333 -32 141c0 86 28.667 161 86 225s133 96 227 96c55.333 0 113 -11.333 173 -34zM455.001 548.001c-53.333 19.333 -103.334 28.999 -150.001 28.999c-56.667 0 -104.167 -14.667 -142.5 -44
s-65.833 -67.666 -82.5 -114.999c-14 -44 -21 -84 -21 -120c0 -46 8.33301 -88.5 25 -127.5s39.334 -66.5 68.001 -82.5zM491 527l-302.001 -460.998c56.667 -24 105.667 -36 147 -36c32.667 0 65.334 7.33301 98.001 22c58 21.333 98.333 66.666 121 135.999
c16 38.667 24 80.667 24 126c0 44 -7.66699 85.167 -23 123.5s-37 68.166 -65 89.499z" />
    <glyph glyph-name="Ugrave" unicode="&#xd9;" horiz-adv-x="560" 
d="M463 620l64.002 0.000976562v-411c0 -74.667 -21.667 -129 -65 -163s-110.333 -51 -201 -51c-71.333 0 -131.5 16.5 -180.5 49.5s-73.5 81.167 -73.5 144.5c0 1.33301 0.333008 3.5 1 6.5s1 5.16699 1 6.5v418h64v-411c0 -27.333 4.33301 -51.5 13 -72.5
s19.5 -37.5 32.5 -49.5s28.167 -21.833 45.5 -29.5s33.833 -12.834 49.5 -15.501s31.5 -4 47.5 -4c25.333 0 49.166 2.66699 71.499 8s43.666 14 63.999 26s36.5 29.667 48.5 53s18 51.333 18 84v411zM175.002 779.001h86l50 -138h-43z" />
    <glyph glyph-name="Uacute" unicode="&#xda;" horiz-adv-x="560" 
d="M463 620l64.002 0.000976562v-411c0 -74.667 -21.667 -129 -65 -163s-110.333 -51 -201 -51c-71.333 0 -131.5 16.5 -180.5 49.5s-73.5 81.167 -73.5 144.5c0 1.33301 0.333008 3.5 1 6.5s1 5.16699 1 6.5v418h64v-411c0 -27.333 4.33301 -51.5 13 -72.5
s19.5 -37.5 32.5 -49.5s28.167 -21.833 45.5 -29.5s33.833 -12.834 49.5 -15.501s31.5 -4 47.5 -4c25.333 0 49.166 2.66699 71.499 8s43.666 14 63.999 26s36.5 29.667 48.5 53s18 51.333 18 84v411zM268.002 793.001h78l-78 -138h-43z" />
    <glyph glyph-name="Ucircumflex" unicode="&#xdb;" horiz-adv-x="560" 
d="M463 620l64.002 0.000976562v-411c0 -74.667 -21.667 -129 -65 -163s-110.333 -51 -201 -51c-71.333 0 -131.5 16.5 -180.5 49.5s-73.5 81.167 -73.5 144.5c0 1.33301 0.333008 3.5 1 6.5s1 5.16699 1 6.5v418h64v-411c0 -27.333 4.33301 -51.5 13 -72.5
s19.5 -37.5 32.5 -49.5s28.167 -21.833 45.5 -29.5s33.833 -12.834 49.5 -15.501s31.5 -4 47.5 -4c25.333 0 49.166 2.66699 71.499 8s43.666 14 63.999 26s36.5 29.667 48.5 53s18 51.333 18 84v411zM159.002 684.001l45 109h107l50 -109h-43l-57 66l-57 -66h-45z" />
    <glyph glyph-name="Udieresis" unicode="&#xdc;" horiz-adv-x="551" 
d="M455 620l65 0.000976562v-411c0 -74.667 -21.667 -129 -65 -163s-110.333 -51 -201 -51c-72 0 -132.333 16.5 -181 49.5s-73 81.167 -73 144.5c-0 1.33301 0.333008 3.5 1 6.5s1 5.16699 1 6.5v418h64v-411c0 -27.333 4.33301 -51.5 13 -72.5s19.5 -37.5 32.5 -49.5
s28.167 -21.833 45.5 -29.5s33.833 -12.834 49.5 -15.501s31.5 -4 47.5 -4c25.333 0 49 2.66699 71 8s43.167 14 63.5 26s36.5 29.667 48.5 53s18 51.333 18 84v411zM159 771.001h66v-50h-66v50zM282 771.001h64v-50h-64v50z" />
    <glyph glyph-name="Yacute" unicode="&#xdd;" horiz-adv-x="43" 
d="M789 -388z" />
    <glyph glyph-name="Thorn" unicode="&#xde;" horiz-adv-x="43" 
d="M789 -388z" />
    <glyph glyph-name="germandbls" unicode="&#xdf;" horiz-adv-x="435" 
d="M2 491c3.33301 47.333 19.8359 83.001 49.5029 107.001s66.167 36 109.5 36c54 0 94.833 -8.33301 122.5 -25s41.5 -50.667 41.5 -102v-30c-2 -15.333 -8.5 -27.5 -19.5 -36.5s-23.5 -16.833 -37.5 -23.5s-23.667 -13.667 -29 -21c-8 -11.333 -12 -21.333 -12 -30
c0 -14.667 8.83301 -28.834 26.5 -42.501s38.167 -27.334 61.5 -41.001s38.666 -25.834 45.999 -36.501c11.333 -6.66699 22.166 -23.167 32.499 -49.5s15.5 -53.166 15.5 -80.499c0 -34.667 -11.5 -63.834 -34.5 -87.501s-59.167 -35.5 -108.5 -35.5
c-33.333 0 -71.333 5.33301 -114 16l-7 43c8 0 25.833 -3.66699 53.5 -11s49.167 -11 64.5 -11c49.333 0 79.666 31 90.999 93v15c0 31.333 -15.5 62 -46.5 92s-60.833 52 -89.5 66c-10 4.66699 -18.5 13.667 -25.5 27s-10.5 27 -10.5 41
c0 16.667 4.83301 32.834 14.5 48.501s23.834 26.834 42.501 33.501c25.333 2 38 20 38 54c0 14.667 -3 29.5 -9 44.5s-13.333 25.833 -22 32.5c-17.333 12 -41 18 -71 18c-32.667 0 -61.334 -9.83301 -86.001 -29.5s-37 -49.167 -37 -88.5v-475h-50v489z" />
    <glyph glyph-name="agrave" unicode="&#xe0;" horiz-adv-x="417" 
d="M332 2l0.00488281 265.995c-32.667 -20 -75.334 -37.333 -128.001 -52c-98 -19.333 -147 -55 -147 -107c0 -1.33301 0.333008 -3.5 1 -6.5s1 -5.5 1 -7.5c3.33301 -23.333 15.666 -40.5 36.999 -51.5s47 -16.5 77 -16.5c36.667 0 70.667 6 102 18l-7 -43
c-26.667 -10 -63 -15 -109 -15c-19.333 0 -37.5 1.83301 -54.5 5.5s-33.333 9.83398 -49 18.501s-28.334 21.334 -38.001 38.001s-14.834 36.667 -15.501 60c0 38 14.5 67.833 43.5 89.5s78.833 42.5 149.5 62.5c8.66699 2.66699 20.167 5.66699 34.5 9s25.166 6 32.499 8
s16 5 26 9s17.5 8.33301 22.5 13s9.5 10.834 13.5 18.501s6.66699 16.834 8 27.501v4c0 22.667 -12 39.334 -36 50.001s-53.667 16 -89 16c-60 0 -111.667 -9 -155 -27l7 50c46 14.667 94.667 22 146 22c52.667 0 96.5 -9.33301 131.5 -28s52.5 -47.667 52.5 -87v-344h-57z
M116.005 626.995h88l50 -136h-43z" />
    <glyph glyph-name="aacute" unicode="&#xe1;" horiz-adv-x="426" 
d="M339 2l0.00195312 265.998c-30.667 -19.333 -73.334 -36.666 -128.001 -51.999c-98 -19.333 -147 -55 -147 -107c0 -1.33301 0.333008 -3.5 1 -6.5s1 -5.5 1 -7.5c3.33301 -22.667 16 -39.667 38 -51s48 -17 78 -17c36 0 69.333 6 100 18l-7 -43
c-26.667 -10 -63 -15 -109 -15c-42.667 0 -79 9.16699 -109 27.5s-46 49.833 -48 94.5c0 38 14.667 67.833 44 89.5s79.666 42.5 150.999 62.5c8.66699 2.66699 21.834 6.16699 39.501 10.5s30.167 7.83301 37.5 10.5s16.166 6.66699 26.499 12s17.833 12.333 22.5 21
s7.66699 19 9 31v4c0 22.667 -11.833 39.334 -35.5 50.001s-53.5 16 -89.5 16c-60 0 -111.667 -9 -155 -27l7 50c46 14.667 95 22 147 22s95.5 -9.33301 130.5 -28s52.5 -47.667 52.5 -87v-344h-57zM239.002 626.998h79l-79 -136h-44z" />
    <glyph glyph-name="acircumflex" unicode="&#xe2;" horiz-adv-x="417" 
d="M332 2l0.00488281 265.995c-32.667 -20 -75.334 -37.333 -128.001 -52c-98 -19.333 -147 -55 -147 -107c0 -1.33301 0.333008 -3.5 1 -6.5s1 -5.5 1 -7.5c3.33301 -23.333 15.666 -40.5 36.999 -51.5s47 -16.5 77 -16.5c36.667 0 70.667 6 102 18l-7 -43
c-26.667 -10 -63 -15 -109 -15c-19.333 0 -37.5 1.83301 -54.5 5.5s-33.333 9.83398 -49 18.501s-28.334 21.334 -38.001 38.001s-14.834 36.667 -15.501 60c0 38 14.5 67.833 43.5 89.5s78.833 42.5 149.5 62.5c8.66699 2.66699 20.167 5.66699 34.5 9s25.166 6 32.499 8
s16 5 26 9s17.5 8.33301 22.5 13s9.5 10.834 13.5 18.501s6.66699 16.834 8 27.501v4c0 22.667 -12 39.334 -36 50.001s-53.667 16 -89 16c-60 0 -111.667 -9 -155 -27l7 50c46 14.667 94.667 22 146 22c52.667 0 96.5 -9.33301 131.5 -28s52.5 -47.667 52.5 -87v-344h-57z
M109.005 512.995l43 107h109l50 -107h-43l-57 64l-59 -64h-43z" />
    <glyph glyph-name="atilde" unicode="&#xe3;" horiz-adv-x="417" 
d="M332 2l0.00488281 265.995c-32.667 -20 -75.334 -37.333 -128.001 -52c-98 -19.333 -147 -55 -147 -107c0 -1.33301 0.333008 -3.5 1 -6.5s1 -5.5 1 -7.5c3.33301 -23.333 15.666 -40.5 36.999 -51.5s47 -16.5 77 -16.5c36.667 0 70.667 6 102 18l-7 -43
c-26.667 -10 -63 -15 -109 -15c-19.333 0 -37.5 1.83301 -54.5 5.5s-33.333 9.83398 -49 18.501s-28.334 21.334 -38.001 38.001s-14.834 36.667 -15.501 60c0 38 14.5 67.833 43.5 89.5s78.833 42.5 149.5 62.5c8.66699 2.66699 20.167 5.66699 34.5 9s25.166 6 32.499 8
s16 5 26 9s17.5 8.33301 22.5 13s9.5 10.834 13.5 18.501s6.66699 16.834 8 27.501v4c0 22.667 -12 39.334 -36 50.001s-53.667 16 -89 16c-60 0 -111.667 -9 -155 -27l7 50c46 14.667 94.667 22 146 22c52.667 0 96.5 -9.33301 131.5 -28s52.5 -47.667 52.5 -87v-344h-57z
M73.0049 519.995c0 62 14.334 95.334 43.001 100.001h11c6 0 12.167 -0.833008 18.5 -2.5s13.166 -4.33398 20.499 -8.00098l18.5 -9.5l21.5 -12l19 -11c20.667 -13.333 35.667 -20 45 -20c17.333 0 26 21 26 63h36c1.33301 -10.667 2 -21.334 2 -32.001
c0 -50 -19.667 -75 -59 -75c-22 4.66699 -48.833 17.667 -80.5 39s-53.167 32 -64.5 32c-9.33301 -9.33301 -14 -30.666 -14 -63.999h-43z" />
    <glyph glyph-name="adieresis" unicode="&#xe4;" horiz-adv-x="417" 
d="M332 2l0.00488281 265.995c-32.667 -20 -75.334 -37.333 -128.001 -52c-98 -19.333 -147 -55 -147 -107c0 -1.33301 0.333008 -3.5 1 -6.5s1 -5.5 1 -7.5c3.33301 -23.333 15.666 -40.5 36.999 -51.5s47 -16.5 77 -16.5c36.667 0 70.667 6 102 18l-7 -43
c-26.667 -10 -63 -15 -109 -15c-19.333 0 -37.5 1.83301 -54.5 5.5s-33.333 9.83398 -49 18.501s-28.334 21.334 -38.001 38.001s-14.834 36.667 -15.501 60c0 38 14.5 67.833 43.5 89.5s78.833 42.5 149.5 62.5c8.66699 2.66699 20.167 5.66699 34.5 9s25.166 6 32.499 8
s16 5 26 9s17.5 8.33301 22.5 13s9.5 10.834 13.5 18.501s6.66699 16.834 8 27.501v4c0 22.667 -12 39.334 -36 50.001s-53.667 16 -89 16c-60 0 -111.667 -9 -155 -27l7 50c46 14.667 94.667 22 146 22c52.667 0 96.5 -9.33301 131.5 -28s52.5 -47.667 52.5 -87v-344h-57z
M116.005 597.995h64v-50h-64v50zM239.005 597.995h65v-50h-65v50z" />
    <glyph glyph-name="aring" unicode="&#xe5;" horiz-adv-x="426" 
d="M339 2l0.00195312 265.998c-30.667 -19.333 -73.334 -36.666 -128.001 -51.999c-98 -19.333 -147 -55 -147 -107c0 -1.33301 0.333008 -3.5 1 -6.5s1 -5.5 1 -7.5c3.33301 -22.667 16 -39.667 38 -51s48 -17 78 -17c36 0 69.333 6 100 18l-7 -43
c-26.667 -10 -63 -15 -109 -15c-42.667 0 -79 9.16699 -109 27.5s-46 49.833 -48 94.5c0 38 14.667 67.833 44 89.5s79.666 42.5 150.999 62.5c8.66699 2.66699 21.834 6.16699 39.501 10.5s30.167 7.83301 37.5 10.5s16.166 6.66699 26.499 12s17.833 12.333 22.5 21
s7.66699 19 9 31v4c0 22.667 -11.833 39.334 -35.5 50.001s-53.5 16 -89.5 16c-60 0 -111.667 -9 -155 -27l7 50c46 14.667 95 22 147 22s95.5 -9.33301 130.5 -28s52.5 -47.667 52.5 -87v-344h-57zM225.002 669.998c26.667 -2.66699 47.666 -11.5 62.999 -26.5
s23 -31.167 23 -48.5v-11c0 -22 -8.16699 -40.667 -24.5 -56s-36.833 -23 -61.5 -23c-29.333 0 -52.166 8 -68.499 24s-24.5 35 -24.5 57s7.83301 41.5 23.5 58.5s36.5 25.5 62.5 25.5h7zM225.001 640.998c-21.333 0 -37.667 -5.50195 -49 -16.502s-17 -24.5 -17 -40.5
c0 -15.333 5.5 -27.5 16.5 -36.5s27.5 -13.5 49.5 -13.5c18 0.666992 32.333 6.33398 43 17.001s16 22.334 16 35.001c0 14 -5.5 26.667 -16.5 38s-25.167 17 -42.5 17z" />
    <glyph glyph-name="ae" unicode="&#xe6;" horiz-adv-x="742" 
d="M9 166c0 2.66699 3.49902 8.66699 10.499 18s18.167 20.333 33.5 33s31.666 22.334 48.999 29.001c8 2.66699 21.167 6.5 39.5 11.5l45.5 12.5c12 3.33301 26.333 8.16602 43 14.499s31.667 12.833 45 19.5c34.667 15.333 52 36.666 52 63.999c0 20 -10.833 38 -32.5 54
s-47.834 24 -78.501 24h-21c-9.33301 -2.66699 -29.5 -7.16699 -60.5 -13.5s-56.167 -13.5 -75.5 -21.5l-7 43c44 21.333 95 32 153 32c45.333 0 83.833 -8.16699 115.5 -24.5s47.5 -40.5 47.5 -72.5c14 28.667 35.833 51.667 65.5 69s60.834 26 93.501 26
s61.334 -7 86.001 -21c21.333 -6.66699 39.333 -18 54 -34s25.167 -34.167 31.5 -54.5s10.5 -38 12.5 -53s3 -29.833 3 -44.5v-16h-339c0 -70 14.167 -123.833 42.5 -161.5s76.833 -58.167 145.5 -61.5c10 0 30.167 3.16699 60.5 9.5s48.833 12.5 55.5 18.5l-8 -57
c0 -2 -9.16699 -4 -27.5 -6s-35.833 -3 -52.5 -3s-26 0.666992 -28 2c-50.667 0 -93.167 7.33301 -127.5 22s-61.5 40.667 -81.5 78c-19.333 36 -29 64.667 -29 86c0 18.667 2.33301 54.667 7 108c-16 -16 -41.667 -32.333 -77 -49s-62.666 -27 -81.999 -31
c-2.66699 -0.666992 -24 -7.66699 -64 -21c-15.333 -6 -27.166 -16 -35.499 -30s-12.5 -29 -12.5 -45c0 -14 4 -29.667 12 -47c18 -24.667 49 -37 93 -37c29.333 0 75.333 7.66699 138 23l-15 -43c-42.667 -9.33301 -79.334 -14 -110.001 -14c-66 0 -113 14.333 -141 43
c-22.667 17.333 -34 37 -34 59c0 4.66699 0.833008 13.834 2.5 27.501s2.5 25.167 2.5 34.5zM654.999 296l-0.00195312 11.002c0 28 -10.333 57.333 -31 88s-46 46 -76 46c-9.33301 0 -16.333 -0.666992 -21 -2h-13c-12 0 -23.167 -1.5 -33.5 -4.5
s-19.166 -6.33301 -26.499 -10s-14.666 -9.33398 -21.999 -17.001s-13 -14 -17 -19s-8.5 -13 -13.5 -24s-8.33301 -18.667 -10 -23l-9 -24c-4.33301 -11.667 -6.83301 -18.834 -7.5 -21.501h280z" />
    <glyph glyph-name="ccedilla" unicode="&#xe7;" horiz-adv-x="377" 
d="M4 239c0.666992 45.333 7.50098 84.001 20.501 116.001s30.667 56.333 53 73s45.833 28.667 70.5 36s52 11 82 11c35.333 0 72.333 -4 111 -12l7 -59c-38 17.333 -78.333 26 -121 26c-48.667 0 -88.5 -15.667 -119.5 -47s-46.5 -79.333 -46.5 -144
c0 -62.667 14.5 -111.334 43.5 -146.001s70.5 -52 124.5 -52c28 0 67.667 8.33301 119 25l-14 -57c-40.667 -6 -73.334 -9 -98.001 -9c-74 0 -131.167 19.667 -171.5 59s-60.5 99.333 -60.5 180zM198.001 -40.999h43l-52 -107h-85z" />
    <glyph glyph-name="egrave" unicode="&#xe8;" horiz-adv-x="435" 
d="M346 296v14.999c0 37.333 -11 66.833 -33 88.5s-51.333 32.5 -88 32.5c-23.333 -1.33301 -43.833 -4.16602 -61.5 -8.49902s-32 -10.833 -43 -19.5s-19.833 -16.334 -26.5 -23.001s-12 -16.5 -16 -29.5s-6.5 -22.167 -7.5 -27.5s-2.5 -14.666 -4.5 -27.999h280z
M2 238.999c0 79.333 21.5 138.833 64.5 178.5s93.5 59.5 151.5 59.5c55.333 0 100.333 -18.833 135 -56.5s52 -81.834 52 -132.501c0 -2.66699 -0.166992 -7 -0.5 -13s-0.5 -10.667 -0.5 -14h-345c0 -80 16.333 -137.167 49 -171.5s74.667 -51.5 126 -51.5
c39.333 0 86.333 9.33301 141 28l-7 -50c-50 -13.333 -94.667 -20 -134 -20c-70 0 -126.167 20.333 -168.5 61s-63.5 101.334 -63.5 182.001zM102 626.999h86l51 -136h-44z" />
    <glyph glyph-name="eacute" unicode="&#xe9;" horiz-adv-x="435" 
d="M354 296l0.000976562 14.999c0 37.333 -11.167 66.833 -33.5 88.5s-51.833 32.5 -88.5 32.5c-27.333 -1.33301 -51 -5.66602 -71 -12.999s-35 -14.833 -45 -22.5s-18.333 -19 -25 -34s-10.834 -26 -12.501 -33s-3.5 -18.167 -5.5 -33.5h281zM9.00098 238.999
c0 79.333 21.5 138.833 64.5 178.5s93.5 59.5 151.5 59.5c56 0 101.333 -18.833 136 -56.5s52 -81.834 52 -132.501c0 -2.66699 -0.333008 -7 -1 -13s-1 -10.667 -1 -14h-345c0 -80 16.333 -137.167 49 -171.5s74.667 -51.5 126 -51.5c39.333 0 86.333 9.33301 141 28
l-7 -50c-50 -13.333 -94.667 -20 -134 -20c-70 0 -126.167 20.333 -168.5 61s-63.5 101.334 -63.5 182.001zM239.001 633.999h79l-79 -136h-44z" />
    <glyph glyph-name="ecircumflex" unicode="&#xea;" horiz-adv-x="435" 
d="M354 296l0.000976562 14.999c0 37.333 -11.167 66.833 -33.5 88.5s-51.833 32.5 -88.5 32.5c-27.333 -1.33301 -51 -5.66602 -71 -12.999s-35 -14.833 -45 -22.5s-18.333 -19 -25 -34s-10.834 -26 -12.501 -33s-3.5 -18.167 -5.5 -33.5h281zM9.00098 238.999
c0 79.333 21.5 138.833 64.5 178.5s93.5 59.5 151.5 59.5c56 0 101.333 -18.833 136 -56.5s52 -81.834 52 -132.501c0 -2.66699 -0.333008 -7 -1 -13s-1 -10.667 -1 -14h-345c0 -80 16.333 -137.167 49 -171.5s74.667 -51.5 126 -51.5c39.333 0 86.333 9.33301 141 28
l-7 -50c-50 -13.333 -94.667 -20 -134 -20c-70 0 -126.167 20.333 -168.5 61s-63.5 101.334 -63.5 182.001zM130.001 526.999l43 107h109l50 -107h-43l-57 64l-59 -64h-43z" />
    <glyph glyph-name="edieresis" unicode="&#xeb;" horiz-adv-x="435" 
d="M354 296l0.000976562 14.999c0 37.333 -11.167 66.833 -33.5 88.5s-51.833 32.5 -88.5 32.5c-27.333 -1.33301 -51 -5.66602 -71 -12.999s-35 -14.833 -45 -22.5s-18.333 -19 -25 -34s-10.834 -26 -12.501 -33s-3.5 -18.167 -5.5 -33.5h281zM9.00098 238.999
c0 79.333 21.5 138.833 64.5 178.5s93.5 59.5 151.5 59.5c56 0 101.333 -18.833 136 -56.5s52 -81.834 52 -132.501c0 -2.66699 -0.333008 -7 -1 -13s-1 -10.667 -1 -14h-345c0 -80 16.333 -137.167 49 -171.5s74.667 -51.5 126 -51.5c39.333 0 86.333 9.33301 141 28
l-7 -50c-50 -13.333 -94.667 -20 -134 -20c-70 0 -126.167 20.333 -168.5 61s-63.5 101.334 -63.5 182.001zM138.001 612.999h66v-50h-66v50zM261.001 612.999h64v-50h-64v50z" />
    <glyph glyph-name="igrave" unicode="&#xec;" horiz-adv-x="167" 
d="M70 454h57v-452h-57v452zM5 627h86l50 -136h-43z" />
    <glyph glyph-name="iacute" unicode="&#xed;" horiz-adv-x="149" 
d="M4 454h57v-452h-57v452zM46 627h79l-79 -136h-42z" />
    <glyph glyph-name="icircumflex" unicode="&#xee;" horiz-adv-x="235" 
d="M70 454h57v-452h-57v452zM5 520l43 107h107l50 -107h-42l-58 64l-57 -64h-43z" />
    <glyph glyph-name="idieresis" unicode="&#xef;" horiz-adv-x="224" 
d="M71 454h58v-452h-58v452zM7 598h64v-50h-64v50zM129 598h64v-50h-64v50z" />
    <glyph glyph-name="eth" unicode="&#xf0;" horiz-adv-x="43" 
d="M789 -388z" />
    <glyph glyph-name="ntilde" unicode="&#xf1;" horiz-adv-x="445" 
d="M80 527c0 62 14.335 95.333 43.002 100h11c5.33301 0 11 -0.666992 17 -2s11.167 -2.83301 15.5 -4.5s10.166 -4.5 17.499 -8.5s12.666 -6.83301 15.999 -8.5s9 -5 17 -10s13 -8.16699 15 -9.5c20.667 -13.333 35.667 -20 45 -20c18 0 27 21 27 63h35
c1.33301 -10.667 2 -21.334 2 -32.001c0 -50 -19.667 -75 -59 -75c-22 4.66699 -48.5 17.667 -79.5 39s-52.5 32 -64.5 32c-10 -9.33301 -15 -30.666 -15 -63.999h-43zM420.002 339l0.000976562 -337h-59v337c0 24 -12.167 43.5 -36.5 58.5s-52.833 22.5 -85.5 22.5
c-43.333 0 -82.5 -14.5 -117.5 -43.5s-55.833 -72.5 -62.5 -130.5v-244h-57v461h57v-102c12 30 37 54.5 75 73.5s78.333 28.5 121 28.5c43.333 0 80.666 -10.333 111.999 -31s49 -51.667 53 -93z" />
    <glyph glyph-name="ograve" unicode="&#xf2;" horiz-adv-x="483" 
d="M232 463c71.333 -4 126.332 -29.666 164.999 -76.999s58 -104 58 -170c0 -62 -19.167 -115.667 -57.5 -161s-91.166 -68 -158.499 -68h-7c-70 0 -124.667 23.167 -164 69.5s-59 100.833 -59 163.5c0 63.333 19.833 119.166 59.5 167.499s94.167 73.5 163.5 75.5z
M231.999 418.001c-58 -3.33301 -101.332 -23.999 -129.999 -61.999s-43 -84.667 -43 -140c4 -50 22.167 -93.5 54.5 -130.5s74.166 -55.5 125.499 -55.5c55.333 0 97.833 17.667 127.5 53s44.5 78 44.5 128c0 53.333 -16 101.166 -48 143.499s-73.667 63.5 -125 63.5h-6z
M138 627.002h87l50 -136h-43z" />
    <glyph glyph-name="oacute" unicode="&#xf3;" horiz-adv-x="483" 
d="M232 463c71.333 -4 126.332 -29.666 164.999 -76.999s58 -104 58 -170c0 -62 -19.167 -115.667 -57.5 -161s-91.166 -68 -158.499 -68h-7c-70 0 -124.667 23.167 -164 69.5s-59 100.833 -59 163.5c0 63.333 19.833 119.166 59.5 167.499s94.167 73.5 163.5 75.5z
M231.999 418.001c-58 -3.33301 -101.332 -23.999 -129.999 -61.999s-43 -84.667 -43 -140c4 -50 22.167 -93.5 54.5 -130.5s74.166 -55.5 125.499 -55.5c55.333 0 97.833 17.667 127.5 53s44.5 78 44.5 128c0 53.333 -16 101.166 -48 143.499s-73.667 63.5 -125 63.5h-6z
M239 634.002h79l-79 -136h-44z" />
    <glyph glyph-name="ocircumflex" unicode="&#xf4;" horiz-adv-x="483" 
d="M232 463c71.333 -4 126.332 -29.666 164.999 -76.999s58 -104 58 -170c0 -62 -19.167 -115.667 -57.5 -161s-91.166 -68 -158.499 -68h-7c-70 0 -124.667 23.167 -164 69.5s-59 100.833 -59 163.5c0 63.333 19.833 119.166 59.5 167.499s94.167 73.5 163.5 75.5z
M231.999 418.001c-58 -3.33301 -101.332 -23.999 -129.999 -61.999s-43 -84.667 -43 -140c4 -50 22.167 -93.5 54.5 -130.5s74.166 -55.5 125.499 -55.5c55.333 0 97.833 17.667 127.5 53s44.5 78 44.5 128c0 53.333 -16 101.166 -48 143.499s-73.667 63.5 -125 63.5h-6z
M138 513.002l42 107h109l50 -107h-43l-57 64l-59 -64h-42z" />
    <glyph glyph-name="otilde" unicode="&#xf5;" horiz-adv-x="474" 
d="M225 463c71.333 -4 126.332 -29.666 164.999 -76.999s58 -104 58 -170c0 -62 -19.167 -115.667 -57.5 -161s-91.166 -68 -158.499 -68h-7c-70 0 -124.667 23.167 -164 69.5s-59 100.833 -59 163.5c0 63.333 19.833 119.166 59.5 167.499s94.167 73.5 163.5 75.5z
M224.999 418.001c-58 -3.33301 -101.332 -23.999 -129.999 -61.999s-43 -84.667 -43 -140c4 -50 22.167 -93.5 54.5 -130.5s74.166 -55.5 125.499 -55.5c55.333 0 97.833 17.667 127.5 53s44.5 78 44.5 128c0 53.333 -16 101.166 -48 143.499s-74 63.5 -126 63.5h-5z
M102 520.002c0 62 14.3311 95.334 42.998 100.001h10c6 0 12.333 -0.833008 19 -2.5s14 -4.33398 22 -8.00098s14.333 -6.66699 19 -9s11.667 -6.5 21 -12.5s15.333 -9.66699 18 -11c20.667 -13.333 35.334 -20 44.001 -20c18 0 27 21 27 63h36
c1.33301 -10.667 2 -21.334 2 -32.001c0 -50 -19.667 -75 -59 -75c-22.667 4.66699 -49.667 17.667 -81 39s-52.666 32 -63.999 32c-9.33301 -9.33301 -14 -30.666 -14 -63.999h-43z" />
    <glyph glyph-name="odieresis" unicode="&#xf6;" horiz-adv-x="483" 
d="M227 463c71.333 -4 126.332 -29.667 164.999 -77s58 -104 58 -170c0 -62 -19.167 -115.667 -57.5 -161s-91.166 -68 -158.499 -68h-7c-70 0 -124.667 23.167 -164 69.5s-59 100.833 -59 163.5c0 64 19.833 120 59.5 168s94.167 73 163.5 75zM226.999 418
c-58 -3.33301 -101.331 -24 -129.998 -62s-43 -84.667 -43 -140c4 -50 22.167 -93.5 54.5 -130.5s74.166 -55.5 125.499 -55.5c55.333 0 97.666 17.667 126.999 53s44 78 44 128c0 54 -15.833 102 -47.5 144s-73.5 63 -125.5 63h-5zM132.001 591h64v-50h-64v50zM255.001 591
h65v-50h-65v50z" />
    <glyph glyph-name="divide" unicode="&#xf7;" horiz-adv-x="810" 
d="M405 332c17.333 36 44.499 67.9971 81.499 95.9971s77.167 42 120.5 42c53.333 0 95.5 -15.167 126.5 -45.5s46.5 -77.833 46.5 -142.5v-36h-337c0 -78 16.167 -134.333 48.5 -169s73.833 -52 124.5 -52c40 0 87.667 11.333 143 34l-14 -50
c-53.333 -14.667 -99.333 -22 -138 -22c-48 0 -89.333 10.167 -124 30.5s-57.667 53.166 -69 98.499c-16.667 -39.333 -40.5 -69.666 -71.5 -90.999s-76.833 -34 -137.5 -38h-16c-55.333 0 -99.833 24 -133.5 72s-50.5 103.333 -50.5 166c0 42 7.5 80.833 22.5 116.5
s39.167 65.834 72.5 90.501s73.333 37.334 120 38.001c15.333 0 34 -3.66699 56 -11s46.333 -22.166 73 -44.499s45.334 -49.833 56.001 -82.5zM383.999 238.997c-5.33301 36 -13.001 66.3301 -23.001 90.9971s-22.5 43.334 -37.5 56.001s-29.833 21.834 -44.5 27.501
s-32 9.5 -52 11.5h-14c-46.667 0 -86.167 -16.833 -118.5 -50.5s-48.5 -81.167 -48.5 -142.5c0 -63.333 13 -114 39 -152s63.667 -57 113 -57c68.667 0 116.834 17.833 144.501 53.5s41.5 89.834 41.5 162.501zM737.998 281.994c0.666992 6 0.999023 14.334 0.999023 25.001
c0 31.333 -11 58.166 -33 80.499s-52.667 34.833 -92 37.5h-14c-29.333 0 -59.166 -12 -89.499 -36s-52.833 -59.667 -67.5 -107h295z" />
    <glyph glyph-name="oslash" unicode="&#xf8;" horiz-adv-x="492" 
d="M102 30c-32 22 -57 50.998 -75 86.998s-27 73.667 -27 113c-0 2.66699 0.333008 6.66699 1 12s1 9.33301 1 12c2.66699 61.333 25.167 112.833 67.5 154.5s94.833 62.5 157.5 62.5c41.333 0 81 -8.33301 119 -25l29 59h50l-43 -80c54 -44 81 -109.333 81 -196v-27
c-2 -38.667 -9.83301 -72.167 -23.5 -100.5s-31 -50.166 -52 -65.499s-42.667 -26.666 -65 -33.999s-45.833 -11 -70.5 -11c-41.333 0 -77 8.33301 -107 25l-36 -57h-50zM325 410.998c-21.333 16.667 -50.332 25.001 -86.999 25.001c-38.667 0 -75.334 -10.333 -110.001 -31
s-57.667 -47.334 -69 -80.001c-12 -32.667 -18 -61.667 -18 -87c0 -65.333 27.333 -120.333 82 -165zM159.001 51.999c34.667 -15.333 67.332 -22.999 97.999 -22.999c43.333 0 79.5 13.667 108.5 41s46.5 61.666 52.5 102.999c2 15.333 3 30.333 3 45
c0 32.667 -5.66699 65 -17 97s-25.666 56.667 -42.999 74z" />
    <glyph glyph-name="ugrave" unicode="&#xf9;" horiz-adv-x="454" 
d="M61 439l-0.000976562 -301c0 -36 11 -65.333 33 -88s49.667 -34 83 -34c0.666992 0 2.33398 -0.333008 5.00098 -1s4.66699 -1 6 -1c44 0 84.167 16.833 120.5 50.5s54.5 72.167 54.5 115.5v259h58v-452h-58v86c-7.33301 -27.333 -31.833 -51.666 -73.5 -72.999
s-84.5 -32 -128.5 -32c-45.333 0 -82.833 13.167 -112.5 39.5s-44.5 67.166 -44.5 122.499v309h57zM117.999 627h87l50 -136h-42z" />
    <glyph glyph-name="uacute" unicode="&#xfa;" horiz-adv-x="454" 
d="M61 439l-0.000976562 -301c0 -36 11 -65.333 33 -88s49.667 -34 83 -34c0.666992 0 2.33398 -0.333008 5.00098 -1s4.66699 -1 6 -1c44 0 84.167 16.833 120.5 50.5s54.5 72.167 54.5 115.5v259h58v-452h-58v86c-7.33301 -27.333 -31.833 -51.666 -73.5 -72.999
s-84.5 -32 -128.5 -32c-45.333 0 -82.833 13.167 -112.5 39.5s-44.5 67.166 -44.5 122.499v309h57zM226.999 620h78l-78 -136h-43z" />
    <glyph glyph-name="ucircumflex" unicode="&#xfb;" horiz-adv-x="454" 
d="M61 439l-0.000976562 -301c0 -36 11 -65.333 33 -88s49.667 -34 83 -34c0.666992 0 2.33398 -0.333008 5.00098 -1s4.66699 -1 6 -1c44 0 84.167 16.833 120.5 50.5s54.5 72.167 54.5 115.5v259h58v-452h-58v86c-7.33301 -27.333 -31.833 -51.666 -73.5 -72.999
s-84.5 -32 -128.5 -32c-45.333 0 -82.833 13.167 -112.5 39.5s-44.5 67.166 -44.5 122.499v309h57zM103.999 513l42 107h109l50 -107h-42l-58 64l-59 -64h-42z" />
    <glyph glyph-name="udieresis" unicode="&#xfc;" horiz-adv-x="454" 
d="M64 439l0.000976562 -301c0 -35.333 11 -64.5 33 -87.5s49.333 -34.5 82 -34.5c0.666992 0 2.33398 -0.333008 5.00098 -1s4.33398 -1 5.00098 -1c45.333 0 86.166 16.833 122.499 50.5s54.5 72.167 54.5 115.5v259h59v-452h-59v86
c-6.66699 -27.333 -30.834 -51.666 -72.501 -72.999s-84.834 -32 -129.501 -32c-45.333 0 -82.833 13.167 -112.5 39.5s-44.5 67.166 -44.5 122.499v309h57zM121.001 598h67v-50h-67v50zM245.001 598h64v-50h-64v50z" />
    <glyph glyph-name="yacute" unicode="&#xfd;" horiz-adv-x="43" 
d="M789 -388z" />
    <glyph glyph-name="thorn" unicode="&#xfe;" horiz-adv-x="43" 
d="M789 -388z" />
    <glyph glyph-name="ydieresis" unicode="&#xff;" horiz-adv-x="502" 
d="M38 454l64.001 0.00195312l150 -409l159 409h64l-230 -545c-13.333 -34 -33.5 -64.167 -60.5 -90.5s-58.833 -39.5 -95.5 -39.5c-22.667 0 -47 5.33301 -73 16l-7 57c24 -18 47.667 -27 71 -27c16.667 0 32 4.83301 46 14.5s27 24.167 39 43.5s21.167 35.666 27.5 48.999
s14.166 31.666 23.499 54.999zM152.001 605.002h64v-50h-64v50zM275.001 605.002h64v-50h-64v50z" />
    <glyph glyph-name="dotlessi" unicode="&#x131;" 
 />
    <glyph glyph-name="Lslash" unicode="&#x141;" 
 />
    <glyph glyph-name="lslash" unicode="&#x142;" 
 />
    <glyph glyph-name="OE" unicode="&#x152;" 
 />
    <glyph glyph-name="oe" unicode="&#x153;" 
 />
    <glyph glyph-name="Scaron" unicode="&#x160;" 
 />
    <glyph glyph-name="scaron" unicode="&#x161;" 
 />
    <glyph glyph-name="Ydieresis" unicode="&#x178;" horiz-adv-x="502" 
d="M38 454l64.001 0.00195312l150 -409l159 409h64l-230 -545c-13.333 -34 -33.5 -64.167 -60.5 -90.5s-58.833 -39.5 -95.5 -39.5c-22.667 0 -47 5.33301 -73 16l-7 57c24 -18 47.667 -27 71 -27c16.667 0 32 4.83301 46 14.5s27 24.167 39 43.5s21.167 35.666 27.5 48.999
s14.166 31.666 23.499 54.999zM152.001 605.002h64v-50h-64v50zM275.001 605.002h64v-50h-64v50z" />
    <glyph glyph-name="Zcaron" unicode="&#x17d;" 
 />
    <glyph glyph-name="zcaron" unicode="&#x17e;" 
 />
    <glyph glyph-name="florin" unicode="&#x192;" 
 />
    <glyph glyph-name="circumflex" unicode="&#x2c6;" horiz-adv-x="474" 
d="M232 570l-159 -324h-64l186 359h73l180 -359h-66z" />
    <glyph glyph-name="caron" unicode="&#x2c7;" 
 />
    <glyph glyph-name="breve" unicode="&#x2d8;" 
 />
    <glyph glyph-name="dotaccent" unicode="&#x2d9;" 
 />
    <glyph glyph-name="ring" unicode="&#x2da;" 
 />
    <glyph glyph-name="ogonek" unicode="&#x2db;" 
 />
    <glyph glyph-name="tilde" unicode="&#x2dc;" horiz-adv-x="483" 
d="M9 209c6 0.666992 13.165 7.33203 21.498 19.999s20 25 35 37s34.167 18 57.5 18c32.667 0 76.334 -12.667 131.001 -38c30.667 -17.333 56 -26 76 -26c18.667 0 35.334 5.16699 50.001 15.5s24.667 20.5 30 30.5l8 16l37 -36c-1.33301 -2 -3 -5 -5 -9
s-6.83301 -10.667 -14.5 -20s-16 -17.666 -25 -24.999s-20.667 -14 -35 -20s-29.5 -9 -45.5 -9c-25.333 0 -53.333 8.33301 -84 25c-8 0.666992 -25 7.66699 -51 21s-47 20 -63 20c-31.333 0 -60.333 -21 -87 -63z" />
    <glyph glyph-name="hungarumlaut" unicode="&#x2dd;" 
 />
    <glyph glyph-name="mu" unicode="&#x3bc;" horiz-adv-x="43" 
d="M789 -388z" />
    <glyph glyph-name="endash" unicode="&#x2013;" horiz-adv-x="388" 
d="M307 195c0 55.333 -7.66895 94.333 -23.002 117s-33.666 34 -54.999 34c-16.667 0 -31.167 -5.33301 -43.5 -16s-21.333 -24.334 -27 -41.001s-9.66699 -32.667 -12 -48s-3.5 -30.666 -3.5 -45.999c0 -16.667 0.833008 -33.334 2.5 -50.001s4.83398 -35.667 9.50098 -57
s12.667 -38.666 24 -51.999s25.333 -20 42 -20c57.333 0 86 59.667 86 179zM90.998 195c3.33301 58.667 16.167 104.498 38.5 137.498s52.833 49.5 91.5 49.5c41.333 0 74.666 -15.667 99.999 -47s38 -78 38 -140c0 -65.333 -11.167 -117.5 -33.5 -156.5
s-57.166 -58.5 -104.499 -58.5c-25.333 0 -47 7 -65 21s-31.5 32.333 -40.5 55s-15.333 45.334 -19 68.001s-5.5 46.334 -5.5 71.001z" />
    <glyph glyph-name="emdash" unicode="&#x2014;" 
 />
    <glyph glyph-name="quoteleft" unicode="&#x2018;" horiz-adv-x="722" 
d="M621 66h72v-64h-72v64zM318 66h73v-64h-73v64zM9 66h71v-64h-71v64z" />
    <glyph glyph-name="quoteright" unicode="&#x2019;" horiz-adv-x="1040" 
d="M964 202c0 55.333 -7.6709 94.5 -23.0039 117.5s-33.666 34.5 -54.999 34.5c-22.667 0 -41 -9.66699 -55 -29s-23 -39.333 -27 -60s-6 -41.667 -6 -63c0 -16.667 0.833008 -33.334 2.5 -50.001s4.83398 -35.667 9.50098 -57s12.834 -38.666 24.501 -51.999
s25.834 -20 42.501 -20c58 0 87 59.667 87 179zM747.996 202c3.33301 59.333 16.001 105.334 38.001 138.001s52.333 49 91 49c42 0 75.333 -15.5 100 -46.5s37 -77.833 37 -140.5c0 -143.333 -45.667 -215 -137 -215c-25.333 0 -47 6.83301 -65 20.5
s-31.333 32.167 -40 55.5s-14.834 46.166 -18.501 68.499s-5.5 45.833 -5.5 70.5zM222.997 446.001c0 56 -7.83594 95.3359 -23.5029 118.003s-34.5 34 -56.5 34c-16.667 0 -31.167 -5.33301 -43.5 -16s-21.333 -24.334 -27 -41.001s-9.66699 -32.834 -12 -48.501
s-3.5 -31.167 -3.5 -46.5c0 -16.667 0.833008 -33.334 2.5 -50.001s4.83398 -35.667 9.50098 -57s12.834 -38.5 24.501 -51.5s25.834 -19.5 42.501 -19.5c58 0 87 59.333 87 178zM6.99414 446.004c3.33301 59.333 16.001 105.5 38.001 138.5s52.333 49.5 91 49.5
c42 0 75.333 -15.5 100 -46.5s37 -78.167 37 -141.5c0 -142.667 -45.667 -214 -137 -214c-25.333 0 -47 6.83301 -65 20.5s-31.333 32 -40 55s-14.834 45.833 -18.501 68.5s-5.5 46 -5.5 70zM638.995 202.004c0 55.333 -7.6709 94.502 -23.0039 117.502
s-33.666 34.5 -54.999 34.5c-16.667 0 -31.167 -5.33301 -43.5 -16s-21.333 -24.334 -27 -41.001s-9.66699 -32.834 -12 -48.501s-3.5 -31.167 -3.5 -46.5c0 -16.667 0.833008 -33.334 2.5 -50.001s4.83398 -35.667 9.50098 -57s12.834 -38.666 24.501 -51.999
s25.834 -20 42.501 -20c56.667 0 85 59.667 85 179zM422.991 202.006c4.66699 59.333 17.999 105.331 39.999 137.998s52.333 49 91 49c41.333 0 74.5 -15.667 99.5 -47s37.5 -78 37.5 -140c0 -65.333 -11 -117.5 -33 -156.5s-56.667 -58.5 -104 -58.5
c-25.333 0 -47.166 7 -65.499 21s-32 32.333 -41 55s-15.333 45.334 -19 68.001s-5.5 46.334 -5.5 71.001zM142.99 2.00391l361 625h50l-361 -625h-50z" />
    <glyph glyph-name="quotesinglbase" unicode="&#x201a;" 
 />
    <glyph glyph-name="quotedblleft" unicode="&#x201c;" horiz-adv-x="761" 
d="M11 620h287v-43h-123v-331h-50v331h-114v43zM738 246h-43v302l-138 -302h-50l-137 302v-302h-43v374h57l152 -324l143 324h59v-374z" />
    <glyph glyph-name="quotedblright" unicode="&#x201d;" horiz-adv-x="215" 
d="M127 605h59v-142h-59v142zM5 605h58v-142h-58v142z" />
    <glyph glyph-name="quotedblbase" unicode="&#x201e;" 
 />
    <glyph glyph-name="dagger" unicode="&#x2020;" 
 />
    <glyph glyph-name="daggerdbl" unicode="&#x2021;" 
 />
    <glyph glyph-name="bullet" unicode="&#x2022;" horiz-adv-x="167" 
d="M5 634h86l50 -136h-43z" />
    <glyph glyph-name="ellipsis" unicode="&#x2026;" 
 />
    <glyph glyph-name="perthousand" unicode="&#x2030;" 
 />
    <glyph glyph-name="guilsinglleft" unicode="&#x2039;" horiz-adv-x="474" 
d="M2 188v73l439 193v-65l-396 -166l396 -171v-65z" />
    <glyph glyph-name="guilsinglright" unicode="&#x203a;" horiz-adv-x="483" 
d="M9 484l446 -209v-80l-446 -200v64l395 173l-395 186v66z" />
    <glyph glyph-name="fraction" unicode="&#x2044;" horiz-adv-x="388" 
d="M298 613h65l-302 -611h-57z" />
    <glyph glyph-name="trademark" unicode="&#x2122;" 
 />
    <glyph glyph-name="minus" unicode="&#x2212;" horiz-adv-x="263" 
d="M7 254h223v-45h-223v45z" />
    <glyph glyph-name="fi" unicode="&#xfb01;" 
 />
    <glyph glyph-name="fl" unicode="&#xfb02;" 
 />
    <glyph glyph-name=".null" horiz-adv-x="0" 
 />
    <glyph glyph-name="nonmarkingreturn" horiz-adv-x="333" 
 />
  </font>
</defs>
</svg>
